G04 #@! TF.GenerationSoftware,KiCad,Pcbnew,9.0.7*
G04 #@! TF.CreationDate,2026-01-14T23:35:42+00:00*
G04 #@! TF.ProjectId,MacroMachine,4d616372-6f4d-4616-9368-696e652e6b69,rev?*
G04 #@! TF.SameCoordinates,Original*
G04 #@! TF.FileFunction,Copper,L1,Top*
G04 #@! TF.FilePolarity,Positive*
%FSLAX46Y46*%
G04 Gerber Fmt 4.6, Leading zero omitted, Abs format (unit mm)*
G04 Created by KiCad (PCBNEW 9.0.7) date 2026-01-14 23:35:42*
%MOMM*%
%LPD*%
G01*
G04 APERTURE LIST*
G04 Aperture macros list*
%AMRoundRect*
0 Rectangle with rounded corners*
0 $1 Rounding radius*
0 $2 $3 $4 $5 $6 $7 $8 $9 X,Y pos of 4 corners*
0 Add a 4 corners polygon primitive as box body*
4,1,4,$2,$3,$4,$5,$6,$7,$8,$9,$2,$3,0*
0 Add four circle primitives for the rounded corners*
1,1,$1+$1,$2,$3*
1,1,$1+$1,$4,$5*
1,1,$1+$1,$6,$7*
1,1,$1+$1,$8,$9*
0 Add four rect primitives between the rounded corners*
20,1,$1+$1,$2,$3,$4,$5,0*
20,1,$1+$1,$4,$5,$6,$7,0*
20,1,$1+$1,$6,$7,$8,$9,0*
20,1,$1+$1,$8,$9,$2,$3,0*%
G04 Aperture macros list end*
G04 #@! TA.AperFunction,ComponentPad*
%ADD10C,2.200000*%
G04 #@! TD*
G04 #@! TA.AperFunction,SMDPad,CuDef*
%ADD11RoundRect,0.500000X-0.875000X-0.500000X0.875000X-0.500000X0.875000X0.500000X-0.875000X0.500000X0*%
G04 #@! TD*
G04 #@! TA.AperFunction,SMDPad,CuDef*
%ADD12RoundRect,0.275000X-0.275000X0.975000X-0.275000X-0.975000X0.275000X-0.975000X0.275000X0.975000X0*%
G04 #@! TD*
G04 #@! TA.AperFunction,SMDPad,CuDef*
%ADD13C,1.700000*%
G04 #@! TD*
G04 #@! TA.AperFunction,SMDPad,CuDef*
%ADD14R,1.600000X0.850000*%
G04 #@! TD*
G04 #@! TA.AperFunction,ComponentPad*
%ADD15R,1.700000X1.700000*%
G04 #@! TD*
G04 #@! TA.AperFunction,ComponentPad*
%ADD16O,1.700000X1.700000*%
G04 #@! TD*
G04 #@! TA.AperFunction,ViaPad*
%ADD17C,0.600000*%
G04 #@! TD*
G04 #@! TA.AperFunction,Conductor*
%ADD18C,0.200000*%
G04 #@! TD*
G04 APERTURE END LIST*
D10*
G04 #@! TO.P,SW2,1,1*
G04 #@! TO.N,GND*
X145415000Y-123507500D03*
G04 #@! TO.P,SW2,2,2*
G04 #@! TO.N,Net-(U1-GPIO2{slash}SCK)*
X139065000Y-126047500D03*
G04 #@! TD*
D11*
G04 #@! TO.P,U1,1,GPIO26/ADC0/A0*
G04 #@! TO.N,Net-(D1-DIN)*
X115825000Y-80486250D03*
G04 #@! TO.P,U1,2,GPIO27/ADC1/A1*
G04 #@! TO.N,unconnected-(U1-GPIO27{slash}ADC1{slash}A1-Pad2)*
X115825000Y-83026250D03*
G04 #@! TO.P,U1,3,GPIO28/ADC2/A2*
G04 #@! TO.N,unconnected-(U1-GPIO28{slash}ADC2{slash}A2-Pad3)*
X115825000Y-85566250D03*
G04 #@! TO.P,U1,4,GPIO29/ADC3/A3*
G04 #@! TO.N,Net-(U1-GPIO29{slash}ADC3{slash}A3)*
X115825000Y-88106250D03*
G04 #@! TO.P,U1,5,GPIO6/SDA*
G04 #@! TO.N,Net-(DS1-SDA)*
X115825000Y-90646250D03*
G04 #@! TO.P,U1,6,GPIO7/SCL*
G04 #@! TO.N,Net-(DS1-SCL)*
X115825000Y-93186250D03*
G04 #@! TO.P,U1,7,GPIO0/TX*
G04 #@! TO.N,Net-(U1-GPIO0{slash}TX)*
X115825000Y-95726250D03*
G04 #@! TO.P,U1,8,GPIO1/RX*
G04 #@! TO.N,Net-(U1-GPIO1{slash}RX)*
X131990000Y-95726250D03*
G04 #@! TO.P,U1,9,GPIO2/SCK*
G04 #@! TO.N,Net-(U1-GPIO2{slash}SCK)*
X131990000Y-93186250D03*
G04 #@! TO.P,U1,10,GPIO4/MISO*
G04 #@! TO.N,Net-(U1-GPIO4{slash}MISO)*
X131990000Y-90646250D03*
G04 #@! TO.P,U1,11,GPIO3/MOSI*
G04 #@! TO.N,Net-(U1-GPIO3{slash}MOSI)*
X131990000Y-88106250D03*
G04 #@! TO.P,U1,12,3V3*
G04 #@! TO.N,+3.3V*
X131990000Y-85566250D03*
G04 #@! TO.P,U1,13,GND*
G04 #@! TO.N,GND*
X131990000Y-83026250D03*
G04 #@! TO.P,U1,14,VBUS*
G04 #@! TO.N,+5V*
X131990000Y-80486250D03*
D12*
G04 #@! TO.P,U1,15*
G04 #@! TO.N,N/C*
X122737000Y-96746250D03*
G04 #@! TO.P,U1,16*
X125277000Y-96746250D03*
D13*
G04 #@! TO.P,U1,17*
X122737000Y-79728250D03*
G04 #@! TO.P,U1,18*
X125277000Y-79728250D03*
G04 #@! TO.P,U1,19*
X122737000Y-82268250D03*
G04 #@! TO.P,U1,20*
X125277000Y-82268250D03*
G04 #@! TD*
D10*
G04 #@! TO.P,SW3,1,1*
G04 #@! TO.N,GND*
X164465000Y-104457500D03*
G04 #@! TO.P,SW3,2,2*
G04 #@! TO.N,Net-(U1-GPIO4{slash}MISO)*
X158115000Y-106997500D03*
G04 #@! TD*
D14*
G04 #@! TO.P,D2,1,DOUT*
G04 #@! TO.N,Net-(D2-DOUT)*
X119693750Y-108662500D03*
G04 #@! TO.P,D2,2,VSS*
G04 #@! TO.N,GND*
X119693750Y-110412500D03*
G04 #@! TO.P,D2,3,DIN*
G04 #@! TO.N,Net-(D1-DOUT)*
X123193750Y-110412500D03*
G04 #@! TO.P,D2,4,VDD*
G04 #@! TO.N,+5V*
X123193750Y-108662500D03*
G04 #@! TD*
G04 #@! TO.P,D4,1,DOUT*
G04 #@! TO.N,unconnected-(D4-DOUT-Pad1)*
X140493750Y-79212500D03*
G04 #@! TO.P,D4,2,VSS*
G04 #@! TO.N,GND*
X140493750Y-80962500D03*
G04 #@! TO.P,D4,3,DIN*
G04 #@! TO.N,Net-(D3-DOUT)*
X143993750Y-80962500D03*
G04 #@! TO.P,D4,4,VDD*
G04 #@! TO.N,+5V*
X143993750Y-79212500D03*
G04 #@! TD*
D10*
G04 #@! TO.P,SW5,1,1*
G04 #@! TO.N,GND*
X183515000Y-104457500D03*
G04 #@! TO.P,SW5,2,2*
G04 #@! TO.N,Net-(U1-GPIO0{slash}TX)*
X177165000Y-106997500D03*
G04 #@! TD*
D14*
G04 #@! TO.P,D1,1,DOUT*
G04 #@! TO.N,Net-(D1-DOUT)*
X119693750Y-127712500D03*
G04 #@! TO.P,D1,2,VSS*
G04 #@! TO.N,GND*
X119693750Y-129462500D03*
G04 #@! TO.P,D1,3,DIN*
G04 #@! TO.N,Net-(D1-DIN)*
X123193750Y-129462500D03*
G04 #@! TO.P,D1,4,VDD*
G04 #@! TO.N,+5V*
X123193750Y-127712500D03*
G04 #@! TD*
G04 #@! TO.P,D3,1,DOUT*
G04 #@! TO.N,Net-(D3-DOUT)*
X140493750Y-89612500D03*
G04 #@! TO.P,D3,2,VSS*
G04 #@! TO.N,GND*
X140493750Y-91362500D03*
G04 #@! TO.P,D3,3,DIN*
G04 #@! TO.N,Net-(D2-DOUT)*
X143993750Y-91362500D03*
G04 #@! TO.P,D3,4,VDD*
G04 #@! TO.N,+5V*
X143993750Y-89612500D03*
G04 #@! TD*
D15*
G04 #@! TO.P,DS1,1,GND*
G04 #@! TO.N,GND*
X189065000Y-86792500D03*
D16*
G04 #@! TO.P,DS1,2,VCC*
G04 #@! TO.N,+3.3V*
X189065000Y-89332500D03*
G04 #@! TO.P,DS1,3,SCL*
G04 #@! TO.N,Net-(DS1-SCL)*
X189065000Y-91872500D03*
G04 #@! TO.P,DS1,4,SDA*
G04 #@! TO.N,Net-(DS1-SDA)*
X189065000Y-94412500D03*
G04 #@! TD*
D10*
G04 #@! TO.P,SW4,1,1*
G04 #@! TO.N,GND*
X164465000Y-123507500D03*
G04 #@! TO.P,SW4,2,2*
G04 #@! TO.N,Net-(U1-GPIO3{slash}MOSI)*
X158115000Y-126047500D03*
G04 #@! TD*
G04 #@! TO.P,SW1,1,1*
G04 #@! TO.N,GND*
X145415000Y-104457500D03*
G04 #@! TO.P,SW1,2,2*
G04 #@! TO.N,Net-(U1-GPIO1{slash}RX)*
X139065000Y-106997500D03*
G04 #@! TD*
G04 #@! TO.P,SW6,1,1*
G04 #@! TO.N,GND*
X183515000Y-123507500D03*
G04 #@! TO.P,SW6,2,2*
G04 #@! TO.N,Net-(U1-GPIO29{slash}ADC3{slash}A3)*
X177165000Y-126047500D03*
G04 #@! TD*
D17*
G04 #@! TO.N,GND*
X136000000Y-82000000D03*
X135300000Y-86700000D03*
G04 #@! TO.N,+5V*
X125200000Y-108300000D03*
X128700000Y-103200000D03*
X146100000Y-83100000D03*
X125900000Y-110700000D03*
X126300000Y-105300000D03*
X145400000Y-86600000D03*
X124500000Y-106700000D03*
X140900000Y-95900000D03*
G04 #@! TO.N,Net-(D1-DIN)*
X120800000Y-100200000D03*
X117200000Y-101100000D03*
G04 #@! TO.N,Net-(D2-DOUT)*
X137600000Y-96400000D03*
X129400000Y-100900000D03*
X143993750Y-91362500D03*
G04 #@! TO.N,Net-(D3-DOUT)*
X140200000Y-87000000D03*
X140800000Y-83900000D03*
G04 #@! TO.N,Net-(DS1-SDA)*
X182700000Y-94600000D03*
X119600000Y-90800000D03*
G04 #@! TO.N,Net-(DS1-SCL)*
X119800000Y-93100000D03*
X178000000Y-93600000D03*
G04 #@! TO.N,Net-(U1-GPIO1{slash}RX)*
X134700000Y-99600000D03*
X132200000Y-99600000D03*
G04 #@! TO.N,Net-(U1-GPIO4{slash}MISO)*
X130254309Y-92168789D03*
X134300000Y-90800000D03*
G04 #@! TO.N,Net-(U1-GPIO0{slash}TX)*
X134600000Y-111400000D03*
X128600000Y-109500000D03*
G04 #@! TD*
D18*
G04 #@! TO.N,Net-(D1-DOUT)*
X119693750Y-113912500D02*
X123193750Y-110412500D01*
X119693750Y-127712500D02*
X119693750Y-113912500D01*
G04 #@! TO.N,GND*
X135700000Y-87500000D02*
X135300000Y-87100000D01*
X189065000Y-86792500D02*
X186772500Y-84500000D01*
X183515000Y-123507500D02*
X164465000Y-123507500D01*
X164465000Y-104457500D02*
X183515000Y-104457500D01*
X116599000Y-127367750D02*
X118693750Y-129462500D01*
X117801000Y-108519750D02*
X117801000Y-100851057D01*
X119693750Y-110412500D02*
X117801000Y-108519750D01*
X134100000Y-84500000D02*
X132626250Y-83026250D01*
X139562500Y-91362500D02*
X135700000Y-87500000D01*
X116951057Y-100499000D02*
X116599000Y-100851057D01*
X164465000Y-129372316D02*
X164465000Y-123507500D01*
X117448943Y-100499000D02*
X116951057Y-100499000D01*
X131990000Y-83026250D02*
X138430000Y-83026250D01*
X145415000Y-104457500D02*
X164465000Y-104457500D01*
X136000000Y-82000000D02*
X134973750Y-83026250D01*
X190216000Y-87943500D02*
X189065000Y-86792500D01*
X117801000Y-100851057D02*
X117448943Y-100499000D01*
X118693750Y-129462500D02*
X119693750Y-129462500D01*
X190216000Y-97756500D02*
X190216000Y-87943500D01*
X138430000Y-83026250D02*
X140493750Y-80962500D01*
X134973750Y-83026250D02*
X131990000Y-83026250D01*
X121169750Y-130938500D02*
X162898816Y-130938500D01*
X135300000Y-87100000D02*
X135300000Y-86700000D01*
X116599000Y-100851057D02*
X116599000Y-127367750D01*
X186772500Y-84500000D02*
X134100000Y-84500000D01*
X132626250Y-83026250D02*
X131990000Y-83026250D01*
X183515000Y-104457500D02*
X190216000Y-97756500D01*
X162898816Y-130938500D02*
X164465000Y-129372316D01*
X140493750Y-91362500D02*
X139562500Y-91362500D01*
X183515000Y-104457500D02*
X183515000Y-123507500D01*
X164465000Y-123507500D02*
X145415000Y-123507500D01*
X119693750Y-129462500D02*
X121169750Y-130938500D01*
G04 #@! TO.N,+5V*
X124837500Y-108662500D02*
X123193750Y-108662500D01*
X146100000Y-81318750D02*
X143993750Y-79212500D01*
X145094750Y-92088500D02*
X145094750Y-90713500D01*
X143993750Y-79212500D02*
X142969750Y-80236500D01*
X125200000Y-108300000D02*
X124837500Y-108662500D01*
X143993750Y-89612500D02*
X143993750Y-88006250D01*
X132239750Y-80236500D02*
X131990000Y-80486250D01*
X141283250Y-95900000D02*
X145094750Y-92088500D01*
X124500000Y-107356250D02*
X124500000Y-106700000D01*
X143993750Y-88006250D02*
X145400000Y-86600000D01*
X142969750Y-80236500D02*
X132239750Y-80236500D01*
X126300000Y-105300000D02*
X128400000Y-103200000D01*
X145094750Y-90713500D02*
X143993750Y-89612500D01*
X146100000Y-83100000D02*
X146100000Y-81318750D01*
X123193750Y-127712500D02*
X123193750Y-113406250D01*
X125400000Y-111200000D02*
X125900000Y-110700000D01*
X140900000Y-95900000D02*
X141283250Y-95900000D01*
X128400000Y-103200000D02*
X128700000Y-103200000D01*
X123193750Y-108662500D02*
X124500000Y-107356250D01*
X123193750Y-113406250D02*
X125400000Y-111200000D01*
G04 #@! TO.N,Net-(D1-DIN)*
X122467750Y-128736500D02*
X118890750Y-128736500D01*
X120800000Y-100200000D02*
X120800000Y-85461250D01*
X123193750Y-129462500D02*
X122467750Y-128736500D01*
X118890750Y-128736500D02*
X117200000Y-127045750D01*
X120800000Y-85461250D02*
X115825000Y-80486250D01*
X117200000Y-127045750D02*
X117200000Y-101100000D01*
G04 #@! TO.N,Net-(D2-DOUT)*
X128351057Y-110101000D02*
X128848943Y-110101000D01*
X128848943Y-110101000D02*
X129400000Y-109549943D01*
X119693750Y-108662500D02*
X120497350Y-109466100D01*
X142637500Y-91362500D02*
X143993750Y-91362500D01*
X137600000Y-96400000D02*
X142637500Y-91362500D01*
X127716157Y-109466100D02*
X128351057Y-110101000D01*
X120497350Y-109466100D02*
X127716157Y-109466100D01*
X129400000Y-109549943D02*
X129400000Y-102000000D01*
X129400000Y-102000000D02*
X129400000Y-100900000D01*
G04 #@! TO.N,Net-(D3-DOUT)*
X143737500Y-80962500D02*
X140800000Y-83900000D01*
X140200000Y-87000000D02*
X140493750Y-87293750D01*
X140493750Y-87293750D02*
X140493750Y-89612500D01*
X143993750Y-80962500D02*
X143737500Y-80962500D01*
G04 #@! TO.N,Net-(DS1-SDA)*
X182887500Y-94412500D02*
X189065000Y-94412500D01*
X115825000Y-90646250D02*
X119446250Y-90646250D01*
X119446250Y-90646250D02*
X119600000Y-90800000D01*
X182700000Y-94600000D02*
X182887500Y-94412500D01*
G04 #@! TO.N,+3.3V*
X185298750Y-85566250D02*
X131990000Y-85566250D01*
X189065000Y-89332500D02*
X185298750Y-85566250D01*
G04 #@! TO.N,Net-(DS1-SCL)*
X119713750Y-93186250D02*
X119800000Y-93100000D01*
X115825000Y-93186250D02*
X119713750Y-93186250D01*
X178000000Y-93600000D02*
X187337500Y-93600000D01*
X187337500Y-93600000D02*
X189065000Y-91872500D01*
G04 #@! TO.N,Net-(U1-GPIO1{slash}RX)*
X132200000Y-99600000D02*
X131990000Y-99390000D01*
X134700000Y-102632500D02*
X134700000Y-99600000D01*
X139065000Y-106997500D02*
X134700000Y-102632500D01*
X131990000Y-99390000D02*
X131990000Y-95726250D01*
G04 #@! TO.N,Net-(U1-GPIO2{slash}SCK)*
X139065000Y-126047500D02*
X130314000Y-117296500D01*
X130314000Y-94862250D02*
X131990000Y-93186250D01*
X130314000Y-117296500D02*
X130314000Y-94862250D01*
G04 #@! TO.N,Net-(U1-GPIO4{slash}MISO)*
X130254309Y-92168789D02*
X130467461Y-92168789D01*
X145973686Y-106997500D02*
X134300000Y-95323814D01*
X158115000Y-106997500D02*
X145973686Y-106997500D01*
X130467461Y-92168789D02*
X131990000Y-90646250D01*
X134300000Y-95323814D02*
X134300000Y-90800000D01*
G04 #@! TO.N,Net-(U1-GPIO3{slash}MOSI)*
X145973686Y-126047500D02*
X133666000Y-113739814D01*
X133666000Y-89782250D02*
X131990000Y-88106250D01*
X158115000Y-126047500D02*
X145973686Y-126047500D01*
X133666000Y-113739814D02*
X133666000Y-89782250D01*
G04 #@! TO.N,Net-(U1-GPIO0{slash}TX)*
X115825000Y-96725000D02*
X115825000Y-95726250D01*
X128600000Y-109500000D02*
X115825000Y-96725000D01*
X177165000Y-106997500D02*
X161140184Y-106997500D01*
X161140184Y-106997500D02*
X156249184Y-111888500D01*
X135088500Y-111888500D02*
X134600000Y-111400000D01*
X156249184Y-111888500D02*
X135088500Y-111888500D01*
G04 #@! TO.N,Net-(U1-GPIO29{slash}ADC3{slash}A3)*
X177165000Y-126047500D02*
X175609366Y-126047500D01*
X114149000Y-134749000D02*
X114149000Y-89782250D01*
X114149000Y-89782250D02*
X115825000Y-88106250D01*
X118100000Y-138700000D02*
X114149000Y-134749000D01*
X175609366Y-126047500D02*
X162956866Y-138700000D01*
X162956866Y-138700000D02*
X118100000Y-138700000D01*
G04 #@! TD*
M02*
