G04 #@! TF.GenerationSoftware,KiCad,Pcbnew,9.0.7*
G04 #@! TF.CreationDate,2026-01-14T23:35:42+00:00*
G04 #@! TF.ProjectId,MacroMachine,4d616372-6f4d-4616-9368-696e652e6b69,rev?*
G04 #@! TF.SameCoordinates,Original*
G04 #@! TF.FileFunction,Legend,Bot*
G04 #@! TF.FilePolarity,Positive*
%FSLAX46Y46*%
G04 Gerber Fmt 4.6, Leading zero omitted, Abs format (unit mm)*
G04 Created by KiCad (PCBNEW 9.0.7) date 2026-01-14 23:35:42*
%MOMM*%
%LPD*%
G01*
G04 APERTURE LIST*
%ADD10C,0.200000*%
G04 APERTURE END LIST*
D10*
X185737469Y-82743409D02*
X186070802Y-82743409D01*
X186136279Y-83267219D02*
X186011279Y-82267219D01*
X186011279Y-82267219D02*
X185535088Y-82267219D01*
X184802945Y-83267219D02*
X185279136Y-83267219D01*
X185279136Y-83267219D02*
X185154136Y-82267219D01*
X184469612Y-83267219D02*
X184344612Y-82267219D01*
X183993422Y-83267219D02*
X183868422Y-82267219D01*
X183868422Y-82267219D02*
X183487469Y-82267219D01*
X183487469Y-82267219D02*
X183398184Y-82314838D01*
X183398184Y-82314838D02*
X183356517Y-82362457D01*
X183356517Y-82362457D02*
X183320803Y-82457695D01*
X183320803Y-82457695D02*
X183338660Y-82600552D01*
X183338660Y-82600552D02*
X183398184Y-82695790D01*
X183398184Y-82695790D02*
X183451755Y-82743409D01*
X183451755Y-82743409D02*
X183552945Y-82791028D01*
X183552945Y-82791028D02*
X183933898Y-82791028D01*
X182231517Y-83267219D02*
X182106517Y-82267219D01*
X182106517Y-82267219D02*
X181862469Y-82981504D01*
X181862469Y-82981504D02*
X181439850Y-82267219D01*
X181439850Y-82267219D02*
X181564850Y-83267219D01*
X181023183Y-82743409D02*
X180689850Y-82743409D01*
X180612469Y-83267219D02*
X181088660Y-83267219D01*
X181088660Y-83267219D02*
X180963660Y-82267219D01*
X180963660Y-82267219D02*
X180487469Y-82267219D01*
X179106516Y-82267219D02*
X178916040Y-82267219D01*
X178916040Y-82267219D02*
X178826755Y-82314838D01*
X178826755Y-82314838D02*
X178743421Y-82410076D01*
X178743421Y-82410076D02*
X178719612Y-82600552D01*
X178719612Y-82600552D02*
X178761278Y-82933885D01*
X178761278Y-82933885D02*
X178832707Y-83124361D01*
X178832707Y-83124361D02*
X178939850Y-83219600D01*
X178939850Y-83219600D02*
X179041040Y-83267219D01*
X179041040Y-83267219D02*
X179231516Y-83267219D01*
X179231516Y-83267219D02*
X179320802Y-83219600D01*
X179320802Y-83219600D02*
X179404136Y-83124361D01*
X179404136Y-83124361D02*
X179427945Y-82933885D01*
X179427945Y-82933885D02*
X179386278Y-82600552D01*
X179386278Y-82600552D02*
X179314850Y-82410076D01*
X179314850Y-82410076D02*
X179207707Y-82314838D01*
X179207707Y-82314838D02*
X179106516Y-82267219D01*
X178392231Y-82267219D02*
X178183897Y-83267219D01*
X178183897Y-83267219D02*
X177725564Y-82267219D01*
X177451754Y-82743409D02*
X177118421Y-82743409D01*
X177041040Y-83267219D02*
X177517231Y-83267219D01*
X177517231Y-83267219D02*
X177392231Y-82267219D01*
X177392231Y-82267219D02*
X176916040Y-82267219D01*
X176041040Y-83267219D02*
X176314850Y-82791028D01*
X176612469Y-83267219D02*
X176487469Y-82267219D01*
X176487469Y-82267219D02*
X176106516Y-82267219D01*
X176106516Y-82267219D02*
X176017231Y-82314838D01*
X176017231Y-82314838D02*
X175975564Y-82362457D01*
X175975564Y-82362457D02*
X175939850Y-82457695D01*
X175939850Y-82457695D02*
X175957707Y-82600552D01*
X175957707Y-82600552D02*
X176017231Y-82695790D01*
X176017231Y-82695790D02*
X176070802Y-82743409D01*
X176070802Y-82743409D02*
X176171992Y-82791028D01*
X176171992Y-82791028D02*
X176552945Y-82791028D01*
X175600564Y-83171980D02*
X175558897Y-83219600D01*
X175558897Y-83219600D02*
X175612469Y-83267219D01*
X175612469Y-83267219D02*
X175654135Y-83219600D01*
X175654135Y-83219600D02*
X175600564Y-83171980D01*
X175600564Y-83171980D02*
X175612469Y-83267219D01*
X175564850Y-82886266D02*
X175541040Y-82314838D01*
X175541040Y-82314838D02*
X175487469Y-82267219D01*
X175487469Y-82267219D02*
X175445802Y-82314838D01*
X175445802Y-82314838D02*
X175564850Y-82886266D01*
X175564850Y-82886266D02*
X175487469Y-82267219D01*
M02*
