G04 #@! TF.GenerationSoftware,KiCad,Pcbnew,9.0.7*
G04 #@! TF.CreationDate,2026-01-14T23:35:42+00:00*
G04 #@! TF.ProjectId,MacroMachine,4d616372-6f4d-4616-9368-696e652e6b69,rev?*
G04 #@! TF.SameCoordinates,Original*
G04 #@! TF.FileFunction,Copper,L2,Bot*
G04 #@! TF.FilePolarity,Positive*
%FSLAX46Y46*%
G04 Gerber Fmt 4.6, Leading zero omitted, Abs format (unit mm)*
G04 Created by KiCad (PCBNEW 9.0.7) date 2026-01-14 23:35:42*
%MOMM*%
%LPD*%
G01*
G04 APERTURE LIST*
G04 #@! TA.AperFunction,ComponentPad*
%ADD10C,2.200000*%
G04 #@! TD*
G04 #@! TA.AperFunction,ComponentPad*
%ADD11R,1.700000X1.700000*%
G04 #@! TD*
G04 #@! TA.AperFunction,ComponentPad*
%ADD12O,1.700000X1.700000*%
G04 #@! TD*
G04 #@! TA.AperFunction,ViaPad*
%ADD13C,0.600000*%
G04 #@! TD*
G04 #@! TA.AperFunction,Conductor*
%ADD14C,0.200000*%
G04 #@! TD*
G04 APERTURE END LIST*
D10*
G04 #@! TO.P,SW2,1,1*
G04 #@! TO.N,GND*
X145415000Y-123507500D03*
G04 #@! TO.P,SW2,2,2*
G04 #@! TO.N,Net-(U1-GPIO2{slash}SCK)*
X139065000Y-126047500D03*
G04 #@! TD*
G04 #@! TO.P,SW3,1,1*
G04 #@! TO.N,GND*
X164465000Y-104457500D03*
G04 #@! TO.P,SW3,2,2*
G04 #@! TO.N,Net-(U1-GPIO4{slash}MISO)*
X158115000Y-106997500D03*
G04 #@! TD*
G04 #@! TO.P,SW5,1,1*
G04 #@! TO.N,GND*
X183515000Y-104457500D03*
G04 #@! TO.P,SW5,2,2*
G04 #@! TO.N,Net-(U1-GPIO0{slash}TX)*
X177165000Y-106997500D03*
G04 #@! TD*
D11*
G04 #@! TO.P,DS1,1,GND*
G04 #@! TO.N,GND*
X189065000Y-86792500D03*
D12*
G04 #@! TO.P,DS1,2,VCC*
G04 #@! TO.N,+3.3V*
X189065000Y-89332500D03*
G04 #@! TO.P,DS1,3,SCL*
G04 #@! TO.N,Net-(DS1-SCL)*
X189065000Y-91872500D03*
G04 #@! TO.P,DS1,4,SDA*
G04 #@! TO.N,Net-(DS1-SDA)*
X189065000Y-94412500D03*
G04 #@! TD*
D10*
G04 #@! TO.P,SW4,1,1*
G04 #@! TO.N,GND*
X164465000Y-123507500D03*
G04 #@! TO.P,SW4,2,2*
G04 #@! TO.N,Net-(U1-GPIO3{slash}MOSI)*
X158115000Y-126047500D03*
G04 #@! TD*
G04 #@! TO.P,SW1,1,1*
G04 #@! TO.N,GND*
X145415000Y-104457500D03*
G04 #@! TO.P,SW1,2,2*
G04 #@! TO.N,Net-(U1-GPIO1{slash}RX)*
X139065000Y-106997500D03*
G04 #@! TD*
G04 #@! TO.P,SW6,1,1*
G04 #@! TO.N,GND*
X183515000Y-123507500D03*
G04 #@! TO.P,SW6,2,2*
G04 #@! TO.N,Net-(U1-GPIO29{slash}ADC3{slash}A3)*
X177165000Y-126047500D03*
G04 #@! TD*
D13*
G04 #@! TO.N,GND*
X136000000Y-82000000D03*
X135300000Y-86700000D03*
G04 #@! TO.N,+5V*
X125200000Y-108300000D03*
X128700000Y-103200000D03*
X146100000Y-83100000D03*
X125900000Y-110700000D03*
X126300000Y-105300000D03*
X145400000Y-86600000D03*
X124500000Y-106700000D03*
X140900000Y-95900000D03*
G04 #@! TO.N,Net-(D1-DIN)*
X120800000Y-100200000D03*
X117200000Y-101100000D03*
G04 #@! TO.N,Net-(D2-DOUT)*
X137600000Y-96400000D03*
X129400000Y-100900000D03*
X143993750Y-91362500D03*
G04 #@! TO.N,Net-(D3-DOUT)*
X140200000Y-87000000D03*
X140800000Y-83900000D03*
G04 #@! TO.N,Net-(DS1-SDA)*
X182700000Y-94600000D03*
X119600000Y-90800000D03*
G04 #@! TO.N,Net-(DS1-SCL)*
X119800000Y-93100000D03*
X178000000Y-93600000D03*
G04 #@! TO.N,Net-(U1-GPIO1{slash}RX)*
X134700000Y-99600000D03*
X132200000Y-99600000D03*
G04 #@! TO.N,Net-(U1-GPIO4{slash}MISO)*
X130254309Y-92168789D03*
X134300000Y-90800000D03*
G04 #@! TO.N,Net-(U1-GPIO0{slash}TX)*
X134600000Y-111400000D03*
X128600000Y-109500000D03*
G04 #@! TD*
D14*
G04 #@! TO.N,GND*
X135300000Y-86700000D02*
X135300000Y-82700000D01*
X135300000Y-82700000D02*
X136000000Y-82000000D01*
G04 #@! TO.N,+5V*
X124900000Y-106700000D02*
X126300000Y-105300000D01*
X140600000Y-96200000D02*
X140900000Y-95900000D01*
X145400000Y-86600000D02*
X146100000Y-85900000D01*
X132400000Y-103200000D02*
X139000000Y-96600000D01*
X139400000Y-96200000D02*
X139900000Y-96200000D01*
X124500000Y-106700000D02*
X124900000Y-106700000D01*
X125900000Y-109000000D02*
X125200000Y-108300000D01*
X139000000Y-96600000D02*
X139400000Y-96200000D01*
X125900000Y-110700000D02*
X125900000Y-109000000D01*
X128700000Y-103200000D02*
X132400000Y-103200000D01*
X139900000Y-96200000D02*
X140600000Y-96200000D01*
X146100000Y-83100000D02*
X146100000Y-83000000D01*
X146100000Y-85900000D02*
X146100000Y-83100000D01*
G04 #@! TO.N,Net-(D1-DIN)*
X118100000Y-100200000D02*
X120800000Y-100200000D01*
X117200000Y-101100000D02*
X118100000Y-100200000D01*
G04 #@! TO.N,Net-(D2-DOUT)*
X129400000Y-100900000D02*
X133500000Y-96800000D01*
X137200000Y-96800000D02*
X137600000Y-96400000D01*
X133500000Y-96800000D02*
X137100000Y-96800000D01*
X137100000Y-96800000D02*
X137200000Y-96800000D01*
G04 #@! TO.N,Net-(D3-DOUT)*
X140800000Y-83900000D02*
X140200000Y-84500000D01*
X140200000Y-84500000D02*
X140200000Y-87000000D01*
G04 #@! TO.N,Net-(DS1-SDA)*
X119600000Y-90800000D02*
X120201000Y-90199000D01*
X178299000Y-90199000D02*
X182700000Y-94600000D01*
X120201000Y-90199000D02*
X178299000Y-90199000D01*
G04 #@! TO.N,Net-(DS1-SCL)*
X177500000Y-93100000D02*
X178000000Y-93600000D01*
X119800000Y-93100000D02*
X177500000Y-93100000D01*
G04 #@! TO.N,Net-(U1-GPIO1{slash}RX)*
X134700000Y-99600000D02*
X132200000Y-99600000D01*
G04 #@! TO.N,Net-(U1-GPIO4{slash}MISO)*
X130268789Y-92168789D02*
X130254309Y-92168789D01*
X134300000Y-90800000D02*
X131700000Y-90800000D01*
X130300000Y-92200000D02*
X130268789Y-92168789D01*
X131700000Y-90800000D02*
X130300000Y-92200000D01*
G04 #@! TO.N,Net-(U1-GPIO0{slash}TX)*
X129500000Y-110400000D02*
X128600000Y-109500000D01*
X134600000Y-111400000D02*
X130500000Y-111400000D01*
X130500000Y-111400000D02*
X129500000Y-110400000D01*
G04 #@! TD*
M02*
