%TF.GenerationSoftware,KiCad,Pcbnew,9.0.7*%
%TF.CreationDate,2026-01-14T23:34:11+00:00*%
%TF.ProjectId,MacroMachine,4d616372-6f4d-4616-9368-696e652e6b69,rev?*%
%TF.SameCoordinates,Original*%
%TF.FileFunction,Drillmap*%
%TF.FilePolarity,Positive*%
%FSLAX45Y45*%
G04 Gerber Fmt 4.5, Leading zero omitted, Abs format (unit mm)*
G04 Created by KiCad (PCBNEW 9.0.7) date 2026-01-14 23:34:11*
%MOMM*%
%LPD*%
G01*
G04 APERTURE LIST*
%ADD10C,0.200000*%
%ADD11C,0.170000*%
%ADD12C,0.220000*%
%ADD13C,0.400000*%
G04 APERTURE END LIST*
D10*
X11290000Y-7760000D02*
X19270000Y-7760000D01*
X19270000Y-14030000D01*
X11290000Y-14030000D01*
X11290000Y-7760000D01*
D11*
X13694500Y-10868750D02*
X13864500Y-11038750D01*
X13864500Y-10868750D02*
X13694500Y-11038750D01*
X13694500Y-12773750D02*
X13864500Y-12943750D01*
X13864500Y-12773750D02*
X13694500Y-12943750D01*
X14710500Y-10868750D02*
X14880500Y-11038750D01*
X14880500Y-10868750D02*
X14710500Y-11038750D01*
X14710500Y-12773750D02*
X14880500Y-12943750D01*
X14880500Y-12773750D02*
X14710500Y-12943750D01*
X15599500Y-10868750D02*
X15769500Y-11038750D01*
X15769500Y-10868750D02*
X15599500Y-11038750D01*
X15599500Y-12773750D02*
X15769500Y-12943750D01*
X15769500Y-12773750D02*
X15599500Y-12943750D01*
X16615500Y-10868750D02*
X16785500Y-11038750D01*
X16785500Y-10868750D02*
X16615500Y-11038750D01*
X16615500Y-12773750D02*
X16785500Y-12943750D01*
X16785500Y-12773750D02*
X16615500Y-12943750D01*
X17504500Y-10868750D02*
X17674500Y-11038750D01*
X17674500Y-10868750D02*
X17504500Y-11038750D01*
X17504500Y-12773750D02*
X17674500Y-12943750D01*
X17674500Y-12773750D02*
X17504500Y-12943750D01*
X18520500Y-10868750D02*
X18690500Y-11038750D01*
X18690500Y-10868750D02*
X18520500Y-11038750D01*
X18520500Y-12773750D02*
X18690500Y-12943750D01*
X18690500Y-12773750D02*
X18520500Y-12943750D01*
D12*
X12940000Y-12500000D02*
G75*
G02*
X12720000Y-12500000I-110000J0D01*
G01*
X12720000Y-12500000D02*
G75*
G02*
X12940000Y-12500000I110000J0D01*
G01*
X15330000Y-8170000D02*
G75*
G02*
X15110000Y-8170000I-110000J0D01*
G01*
X15110000Y-8170000D02*
G75*
G02*
X15330000Y-8170000I110000J0D01*
G01*
D13*
X14287500Y-10753750D02*
X14287500Y-11153750D01*
X14087500Y-10953750D02*
X14487500Y-10953750D01*
X14287500Y-12658750D02*
X14287500Y-13058750D01*
X14087500Y-12858750D02*
X14487500Y-12858750D01*
X16192500Y-10753750D02*
X16192500Y-11153750D01*
X15992500Y-10953750D02*
X16392500Y-10953750D01*
X16192500Y-12658750D02*
X16192500Y-13058750D01*
X15992500Y-12858750D02*
X16392500Y-12858750D01*
X18097500Y-10753750D02*
X18097500Y-11153750D01*
X17897500Y-10953750D02*
X18297500Y-10953750D01*
X18097500Y-12658750D02*
X18097500Y-13058750D01*
X17897500Y-12858750D02*
X18297500Y-12858750D01*
D10*
X11540777Y-14351484D02*
X11540777Y-14151484D01*
X11540777Y-14151484D02*
X11588396Y-14151484D01*
X11588396Y-14151484D02*
X11616967Y-14161008D01*
X11616967Y-14161008D02*
X11636015Y-14180055D01*
X11636015Y-14180055D02*
X11645539Y-14199103D01*
X11645539Y-14199103D02*
X11655062Y-14237198D01*
X11655062Y-14237198D02*
X11655062Y-14265769D01*
X11655062Y-14265769D02*
X11645539Y-14303865D01*
X11645539Y-14303865D02*
X11636015Y-14322912D01*
X11636015Y-14322912D02*
X11616967Y-14341960D01*
X11616967Y-14341960D02*
X11588396Y-14351484D01*
X11588396Y-14351484D02*
X11540777Y-14351484D01*
X11740777Y-14351484D02*
X11740777Y-14218150D01*
X11740777Y-14256246D02*
X11750301Y-14237198D01*
X11750301Y-14237198D02*
X11759824Y-14227674D01*
X11759824Y-14227674D02*
X11778872Y-14218150D01*
X11778872Y-14218150D02*
X11797920Y-14218150D01*
X11864586Y-14351484D02*
X11864586Y-14218150D01*
X11864586Y-14151484D02*
X11855062Y-14161008D01*
X11855062Y-14161008D02*
X11864586Y-14170531D01*
X11864586Y-14170531D02*
X11874110Y-14161008D01*
X11874110Y-14161008D02*
X11864586Y-14151484D01*
X11864586Y-14151484D02*
X11864586Y-14170531D01*
X11988396Y-14351484D02*
X11969348Y-14341960D01*
X11969348Y-14341960D02*
X11959824Y-14322912D01*
X11959824Y-14322912D02*
X11959824Y-14151484D01*
X12093158Y-14351484D02*
X12074110Y-14341960D01*
X12074110Y-14341960D02*
X12064586Y-14322912D01*
X12064586Y-14322912D02*
X12064586Y-14151484D01*
X12321729Y-14351484D02*
X12321729Y-14151484D01*
X12321729Y-14151484D02*
X12388396Y-14294341D01*
X12388396Y-14294341D02*
X12455062Y-14151484D01*
X12455062Y-14151484D02*
X12455062Y-14351484D01*
X12636015Y-14351484D02*
X12636015Y-14246722D01*
X12636015Y-14246722D02*
X12626491Y-14227674D01*
X12626491Y-14227674D02*
X12607443Y-14218150D01*
X12607443Y-14218150D02*
X12569348Y-14218150D01*
X12569348Y-14218150D02*
X12550301Y-14227674D01*
X12636015Y-14341960D02*
X12616967Y-14351484D01*
X12616967Y-14351484D02*
X12569348Y-14351484D01*
X12569348Y-14351484D02*
X12550301Y-14341960D01*
X12550301Y-14341960D02*
X12540777Y-14322912D01*
X12540777Y-14322912D02*
X12540777Y-14303865D01*
X12540777Y-14303865D02*
X12550301Y-14284817D01*
X12550301Y-14284817D02*
X12569348Y-14275293D01*
X12569348Y-14275293D02*
X12616967Y-14275293D01*
X12616967Y-14275293D02*
X12636015Y-14265769D01*
X12731253Y-14218150D02*
X12731253Y-14418150D01*
X12731253Y-14227674D02*
X12750301Y-14218150D01*
X12750301Y-14218150D02*
X12788396Y-14218150D01*
X12788396Y-14218150D02*
X12807443Y-14227674D01*
X12807443Y-14227674D02*
X12816967Y-14237198D01*
X12816967Y-14237198D02*
X12826491Y-14256246D01*
X12826491Y-14256246D02*
X12826491Y-14313388D01*
X12826491Y-14313388D02*
X12816967Y-14332436D01*
X12816967Y-14332436D02*
X12807443Y-14341960D01*
X12807443Y-14341960D02*
X12788396Y-14351484D01*
X12788396Y-14351484D02*
X12750301Y-14351484D01*
X12750301Y-14351484D02*
X12731253Y-14341960D01*
X12912205Y-14332436D02*
X12921729Y-14341960D01*
X12921729Y-14341960D02*
X12912205Y-14351484D01*
X12912205Y-14351484D02*
X12902682Y-14341960D01*
X12902682Y-14341960D02*
X12912205Y-14332436D01*
X12912205Y-14332436D02*
X12912205Y-14351484D01*
X12912205Y-14227674D02*
X12921729Y-14237198D01*
X12921729Y-14237198D02*
X12912205Y-14246722D01*
X12912205Y-14246722D02*
X12902682Y-14237198D01*
X12902682Y-14237198D02*
X12912205Y-14227674D01*
X12912205Y-14227674D02*
X12912205Y-14246722D01*
D11*
X11110000Y-14595000D02*
X11280000Y-14765000D01*
X11280000Y-14595000D02*
X11110000Y-14765000D01*
D10*
X11645539Y-14771484D02*
X11531253Y-14771484D01*
X11588396Y-14771484D02*
X11588396Y-14571484D01*
X11588396Y-14571484D02*
X11569348Y-14600055D01*
X11569348Y-14600055D02*
X11550301Y-14619103D01*
X11550301Y-14619103D02*
X11531253Y-14628627D01*
X11731253Y-14752436D02*
X11740777Y-14761960D01*
X11740777Y-14761960D02*
X11731253Y-14771484D01*
X11731253Y-14771484D02*
X11721729Y-14761960D01*
X11721729Y-14761960D02*
X11731253Y-14752436D01*
X11731253Y-14752436D02*
X11731253Y-14771484D01*
X11807443Y-14571484D02*
X11940777Y-14571484D01*
X11940777Y-14571484D02*
X11855062Y-14771484D01*
X12055062Y-14571484D02*
X12074110Y-14571484D01*
X12074110Y-14571484D02*
X12093158Y-14581008D01*
X12093158Y-14581008D02*
X12102682Y-14590531D01*
X12102682Y-14590531D02*
X12112205Y-14609579D01*
X12112205Y-14609579D02*
X12121729Y-14647674D01*
X12121729Y-14647674D02*
X12121729Y-14695293D01*
X12121729Y-14695293D02*
X12112205Y-14733388D01*
X12112205Y-14733388D02*
X12102682Y-14752436D01*
X12102682Y-14752436D02*
X12093158Y-14761960D01*
X12093158Y-14761960D02*
X12074110Y-14771484D01*
X12074110Y-14771484D02*
X12055062Y-14771484D01*
X12055062Y-14771484D02*
X12036015Y-14761960D01*
X12036015Y-14761960D02*
X12026491Y-14752436D01*
X12026491Y-14752436D02*
X12016967Y-14733388D01*
X12016967Y-14733388D02*
X12007443Y-14695293D01*
X12007443Y-14695293D02*
X12007443Y-14647674D01*
X12007443Y-14647674D02*
X12016967Y-14609579D01*
X12016967Y-14609579D02*
X12026491Y-14590531D01*
X12026491Y-14590531D02*
X12036015Y-14581008D01*
X12036015Y-14581008D02*
X12055062Y-14571484D01*
X12245539Y-14571484D02*
X12264586Y-14571484D01*
X12264586Y-14571484D02*
X12283634Y-14581008D01*
X12283634Y-14581008D02*
X12293158Y-14590531D01*
X12293158Y-14590531D02*
X12302682Y-14609579D01*
X12302682Y-14609579D02*
X12312205Y-14647674D01*
X12312205Y-14647674D02*
X12312205Y-14695293D01*
X12312205Y-14695293D02*
X12302682Y-14733388D01*
X12302682Y-14733388D02*
X12293158Y-14752436D01*
X12293158Y-14752436D02*
X12283634Y-14761960D01*
X12283634Y-14761960D02*
X12264586Y-14771484D01*
X12264586Y-14771484D02*
X12245539Y-14771484D01*
X12245539Y-14771484D02*
X12226491Y-14761960D01*
X12226491Y-14761960D02*
X12216967Y-14752436D01*
X12216967Y-14752436D02*
X12207443Y-14733388D01*
X12207443Y-14733388D02*
X12197920Y-14695293D01*
X12197920Y-14695293D02*
X12197920Y-14647674D01*
X12197920Y-14647674D02*
X12207443Y-14609579D01*
X12207443Y-14609579D02*
X12216967Y-14590531D01*
X12216967Y-14590531D02*
X12226491Y-14581008D01*
X12226491Y-14581008D02*
X12245539Y-14571484D01*
X12397920Y-14771484D02*
X12397920Y-14638150D01*
X12397920Y-14657198D02*
X12407443Y-14647674D01*
X12407443Y-14647674D02*
X12426491Y-14638150D01*
X12426491Y-14638150D02*
X12455063Y-14638150D01*
X12455063Y-14638150D02*
X12474110Y-14647674D01*
X12474110Y-14647674D02*
X12483634Y-14666722D01*
X12483634Y-14666722D02*
X12483634Y-14771484D01*
X12483634Y-14666722D02*
X12493158Y-14647674D01*
X12493158Y-14647674D02*
X12512205Y-14638150D01*
X12512205Y-14638150D02*
X12540777Y-14638150D01*
X12540777Y-14638150D02*
X12559824Y-14647674D01*
X12559824Y-14647674D02*
X12569348Y-14666722D01*
X12569348Y-14666722D02*
X12569348Y-14771484D01*
X12664586Y-14771484D02*
X12664586Y-14638150D01*
X12664586Y-14657198D02*
X12674110Y-14647674D01*
X12674110Y-14647674D02*
X12693158Y-14638150D01*
X12693158Y-14638150D02*
X12721729Y-14638150D01*
X12721729Y-14638150D02*
X12740777Y-14647674D01*
X12740777Y-14647674D02*
X12750301Y-14666722D01*
X12750301Y-14666722D02*
X12750301Y-14771484D01*
X12750301Y-14666722D02*
X12759824Y-14647674D01*
X12759824Y-14647674D02*
X12778872Y-14638150D01*
X12778872Y-14638150D02*
X12807443Y-14638150D01*
X12807443Y-14638150D02*
X12826491Y-14647674D01*
X12826491Y-14647674D02*
X12836015Y-14666722D01*
X12836015Y-14666722D02*
X12836015Y-14771484D01*
X13226491Y-14561960D02*
X13055063Y-14819103D01*
X13483634Y-14571484D02*
X13502682Y-14571484D01*
X13502682Y-14571484D02*
X13521729Y-14581008D01*
X13521729Y-14581008D02*
X13531253Y-14590531D01*
X13531253Y-14590531D02*
X13540777Y-14609579D01*
X13540777Y-14609579D02*
X13550301Y-14647674D01*
X13550301Y-14647674D02*
X13550301Y-14695293D01*
X13550301Y-14695293D02*
X13540777Y-14733388D01*
X13540777Y-14733388D02*
X13531253Y-14752436D01*
X13531253Y-14752436D02*
X13521729Y-14761960D01*
X13521729Y-14761960D02*
X13502682Y-14771484D01*
X13502682Y-14771484D02*
X13483634Y-14771484D01*
X13483634Y-14771484D02*
X13464586Y-14761960D01*
X13464586Y-14761960D02*
X13455063Y-14752436D01*
X13455063Y-14752436D02*
X13445539Y-14733388D01*
X13445539Y-14733388D02*
X13436015Y-14695293D01*
X13436015Y-14695293D02*
X13436015Y-14647674D01*
X13436015Y-14647674D02*
X13445539Y-14609579D01*
X13445539Y-14609579D02*
X13455063Y-14590531D01*
X13455063Y-14590531D02*
X13464586Y-14581008D01*
X13464586Y-14581008D02*
X13483634Y-14571484D01*
X13636015Y-14752436D02*
X13645539Y-14761960D01*
X13645539Y-14761960D02*
X13636015Y-14771484D01*
X13636015Y-14771484D02*
X13626491Y-14761960D01*
X13626491Y-14761960D02*
X13636015Y-14752436D01*
X13636015Y-14752436D02*
X13636015Y-14771484D01*
X13769348Y-14571484D02*
X13788396Y-14571484D01*
X13788396Y-14571484D02*
X13807444Y-14581008D01*
X13807444Y-14581008D02*
X13816967Y-14590531D01*
X13816967Y-14590531D02*
X13826491Y-14609579D01*
X13826491Y-14609579D02*
X13836015Y-14647674D01*
X13836015Y-14647674D02*
X13836015Y-14695293D01*
X13836015Y-14695293D02*
X13826491Y-14733388D01*
X13826491Y-14733388D02*
X13816967Y-14752436D01*
X13816967Y-14752436D02*
X13807444Y-14761960D01*
X13807444Y-14761960D02*
X13788396Y-14771484D01*
X13788396Y-14771484D02*
X13769348Y-14771484D01*
X13769348Y-14771484D02*
X13750301Y-14761960D01*
X13750301Y-14761960D02*
X13740777Y-14752436D01*
X13740777Y-14752436D02*
X13731253Y-14733388D01*
X13731253Y-14733388D02*
X13721729Y-14695293D01*
X13721729Y-14695293D02*
X13721729Y-14647674D01*
X13721729Y-14647674D02*
X13731253Y-14609579D01*
X13731253Y-14609579D02*
X13740777Y-14590531D01*
X13740777Y-14590531D02*
X13750301Y-14581008D01*
X13750301Y-14581008D02*
X13769348Y-14571484D01*
X14007444Y-14571484D02*
X13969348Y-14571484D01*
X13969348Y-14571484D02*
X13950301Y-14581008D01*
X13950301Y-14581008D02*
X13940777Y-14590531D01*
X13940777Y-14590531D02*
X13921729Y-14619103D01*
X13921729Y-14619103D02*
X13912206Y-14657198D01*
X13912206Y-14657198D02*
X13912206Y-14733388D01*
X13912206Y-14733388D02*
X13921729Y-14752436D01*
X13921729Y-14752436D02*
X13931253Y-14761960D01*
X13931253Y-14761960D02*
X13950301Y-14771484D01*
X13950301Y-14771484D02*
X13988396Y-14771484D01*
X13988396Y-14771484D02*
X14007444Y-14761960D01*
X14007444Y-14761960D02*
X14016967Y-14752436D01*
X14016967Y-14752436D02*
X14026491Y-14733388D01*
X14026491Y-14733388D02*
X14026491Y-14685769D01*
X14026491Y-14685769D02*
X14016967Y-14666722D01*
X14016967Y-14666722D02*
X14007444Y-14657198D01*
X14007444Y-14657198D02*
X13988396Y-14647674D01*
X13988396Y-14647674D02*
X13950301Y-14647674D01*
X13950301Y-14647674D02*
X13931253Y-14657198D01*
X13931253Y-14657198D02*
X13921729Y-14666722D01*
X13921729Y-14666722D02*
X13912206Y-14685769D01*
X14197920Y-14571484D02*
X14159825Y-14571484D01*
X14159825Y-14571484D02*
X14140777Y-14581008D01*
X14140777Y-14581008D02*
X14131253Y-14590531D01*
X14131253Y-14590531D02*
X14112206Y-14619103D01*
X14112206Y-14619103D02*
X14102682Y-14657198D01*
X14102682Y-14657198D02*
X14102682Y-14733388D01*
X14102682Y-14733388D02*
X14112206Y-14752436D01*
X14112206Y-14752436D02*
X14121729Y-14761960D01*
X14121729Y-14761960D02*
X14140777Y-14771484D01*
X14140777Y-14771484D02*
X14178872Y-14771484D01*
X14178872Y-14771484D02*
X14197920Y-14761960D01*
X14197920Y-14761960D02*
X14207444Y-14752436D01*
X14207444Y-14752436D02*
X14216967Y-14733388D01*
X14216967Y-14733388D02*
X14216967Y-14685769D01*
X14216967Y-14685769D02*
X14207444Y-14666722D01*
X14207444Y-14666722D02*
X14197920Y-14657198D01*
X14197920Y-14657198D02*
X14178872Y-14647674D01*
X14178872Y-14647674D02*
X14140777Y-14647674D01*
X14140777Y-14647674D02*
X14121729Y-14657198D01*
X14121729Y-14657198D02*
X14112206Y-14666722D01*
X14112206Y-14666722D02*
X14102682Y-14685769D01*
X14312206Y-14771484D02*
X14350301Y-14771484D01*
X14350301Y-14771484D02*
X14369348Y-14761960D01*
X14369348Y-14761960D02*
X14378872Y-14752436D01*
X14378872Y-14752436D02*
X14397920Y-14723865D01*
X14397920Y-14723865D02*
X14407444Y-14685769D01*
X14407444Y-14685769D02*
X14407444Y-14609579D01*
X14407444Y-14609579D02*
X14397920Y-14590531D01*
X14397920Y-14590531D02*
X14388396Y-14581008D01*
X14388396Y-14581008D02*
X14369348Y-14571484D01*
X14369348Y-14571484D02*
X14331253Y-14571484D01*
X14331253Y-14571484D02*
X14312206Y-14581008D01*
X14312206Y-14581008D02*
X14302682Y-14590531D01*
X14302682Y-14590531D02*
X14293158Y-14609579D01*
X14293158Y-14609579D02*
X14293158Y-14657198D01*
X14293158Y-14657198D02*
X14302682Y-14676246D01*
X14302682Y-14676246D02*
X14312206Y-14685769D01*
X14312206Y-14685769D02*
X14331253Y-14695293D01*
X14331253Y-14695293D02*
X14369348Y-14695293D01*
X14369348Y-14695293D02*
X14388396Y-14685769D01*
X14388396Y-14685769D02*
X14397920Y-14676246D01*
X14397920Y-14676246D02*
X14407444Y-14657198D01*
X14483634Y-14571484D02*
X14483634Y-14609579D01*
X14559825Y-14571484D02*
X14559825Y-14609579D01*
X14855063Y-14847674D02*
X14845539Y-14838150D01*
X14845539Y-14838150D02*
X14826491Y-14809579D01*
X14826491Y-14809579D02*
X14816968Y-14790531D01*
X14816968Y-14790531D02*
X14807444Y-14761960D01*
X14807444Y-14761960D02*
X14797920Y-14714341D01*
X14797920Y-14714341D02*
X14797920Y-14676246D01*
X14797920Y-14676246D02*
X14807444Y-14628627D01*
X14807444Y-14628627D02*
X14816968Y-14600055D01*
X14816968Y-14600055D02*
X14826491Y-14581008D01*
X14826491Y-14581008D02*
X14845539Y-14552436D01*
X14845539Y-14552436D02*
X14855063Y-14542912D01*
X15036015Y-14771484D02*
X14921729Y-14771484D01*
X14978872Y-14771484D02*
X14978872Y-14571484D01*
X14978872Y-14571484D02*
X14959825Y-14600055D01*
X14959825Y-14600055D02*
X14940777Y-14619103D01*
X14940777Y-14619103D02*
X14921729Y-14628627D01*
X15112206Y-14590531D02*
X15121729Y-14581008D01*
X15121729Y-14581008D02*
X15140777Y-14571484D01*
X15140777Y-14571484D02*
X15188396Y-14571484D01*
X15188396Y-14571484D02*
X15207444Y-14581008D01*
X15207444Y-14581008D02*
X15216968Y-14590531D01*
X15216968Y-14590531D02*
X15226491Y-14609579D01*
X15226491Y-14609579D02*
X15226491Y-14628627D01*
X15226491Y-14628627D02*
X15216968Y-14657198D01*
X15216968Y-14657198D02*
X15102682Y-14771484D01*
X15102682Y-14771484D02*
X15226491Y-14771484D01*
X15464587Y-14771484D02*
X15464587Y-14571484D01*
X15550301Y-14771484D02*
X15550301Y-14666722D01*
X15550301Y-14666722D02*
X15540777Y-14647674D01*
X15540777Y-14647674D02*
X15521730Y-14638150D01*
X15521730Y-14638150D02*
X15493158Y-14638150D01*
X15493158Y-14638150D02*
X15474110Y-14647674D01*
X15474110Y-14647674D02*
X15464587Y-14657198D01*
X15674110Y-14771484D02*
X15655063Y-14761960D01*
X15655063Y-14761960D02*
X15645539Y-14752436D01*
X15645539Y-14752436D02*
X15636015Y-14733388D01*
X15636015Y-14733388D02*
X15636015Y-14676246D01*
X15636015Y-14676246D02*
X15645539Y-14657198D01*
X15645539Y-14657198D02*
X15655063Y-14647674D01*
X15655063Y-14647674D02*
X15674110Y-14638150D01*
X15674110Y-14638150D02*
X15702682Y-14638150D01*
X15702682Y-14638150D02*
X15721730Y-14647674D01*
X15721730Y-14647674D02*
X15731253Y-14657198D01*
X15731253Y-14657198D02*
X15740777Y-14676246D01*
X15740777Y-14676246D02*
X15740777Y-14733388D01*
X15740777Y-14733388D02*
X15731253Y-14752436D01*
X15731253Y-14752436D02*
X15721730Y-14761960D01*
X15721730Y-14761960D02*
X15702682Y-14771484D01*
X15702682Y-14771484D02*
X15674110Y-14771484D01*
X15855063Y-14771484D02*
X15836015Y-14761960D01*
X15836015Y-14761960D02*
X15826491Y-14742912D01*
X15826491Y-14742912D02*
X15826491Y-14571484D01*
X16007444Y-14761960D02*
X15988396Y-14771484D01*
X15988396Y-14771484D02*
X15950301Y-14771484D01*
X15950301Y-14771484D02*
X15931253Y-14761960D01*
X15931253Y-14761960D02*
X15921730Y-14742912D01*
X15921730Y-14742912D02*
X15921730Y-14666722D01*
X15921730Y-14666722D02*
X15931253Y-14647674D01*
X15931253Y-14647674D02*
X15950301Y-14638150D01*
X15950301Y-14638150D02*
X15988396Y-14638150D01*
X15988396Y-14638150D02*
X16007444Y-14647674D01*
X16007444Y-14647674D02*
X16016968Y-14666722D01*
X16016968Y-14666722D02*
X16016968Y-14685769D01*
X16016968Y-14685769D02*
X15921730Y-14704817D01*
X16093158Y-14761960D02*
X16112206Y-14771484D01*
X16112206Y-14771484D02*
X16150301Y-14771484D01*
X16150301Y-14771484D02*
X16169349Y-14761960D01*
X16169349Y-14761960D02*
X16178872Y-14742912D01*
X16178872Y-14742912D02*
X16178872Y-14733388D01*
X16178872Y-14733388D02*
X16169349Y-14714341D01*
X16169349Y-14714341D02*
X16150301Y-14704817D01*
X16150301Y-14704817D02*
X16121730Y-14704817D01*
X16121730Y-14704817D02*
X16102682Y-14695293D01*
X16102682Y-14695293D02*
X16093158Y-14676246D01*
X16093158Y-14676246D02*
X16093158Y-14666722D01*
X16093158Y-14666722D02*
X16102682Y-14647674D01*
X16102682Y-14647674D02*
X16121730Y-14638150D01*
X16121730Y-14638150D02*
X16150301Y-14638150D01*
X16150301Y-14638150D02*
X16169349Y-14647674D01*
X16245539Y-14847674D02*
X16255063Y-14838150D01*
X16255063Y-14838150D02*
X16274111Y-14809579D01*
X16274111Y-14809579D02*
X16283634Y-14790531D01*
X16283634Y-14790531D02*
X16293158Y-14761960D01*
X16293158Y-14761960D02*
X16302682Y-14714341D01*
X16302682Y-14714341D02*
X16302682Y-14676246D01*
X16302682Y-14676246D02*
X16293158Y-14628627D01*
X16293158Y-14628627D02*
X16283634Y-14600055D01*
X16283634Y-14600055D02*
X16274111Y-14581008D01*
X16274111Y-14581008D02*
X16255063Y-14552436D01*
X16255063Y-14552436D02*
X16245539Y-14542912D01*
X16607444Y-14847674D02*
X16597920Y-14838150D01*
X16597920Y-14838150D02*
X16578872Y-14809579D01*
X16578872Y-14809579D02*
X16569349Y-14790531D01*
X16569349Y-14790531D02*
X16559825Y-14761960D01*
X16559825Y-14761960D02*
X16550301Y-14714341D01*
X16550301Y-14714341D02*
X16550301Y-14676246D01*
X16550301Y-14676246D02*
X16559825Y-14628627D01*
X16559825Y-14628627D02*
X16569349Y-14600055D01*
X16569349Y-14600055D02*
X16578872Y-14581008D01*
X16578872Y-14581008D02*
X16597920Y-14552436D01*
X16597920Y-14552436D02*
X16607444Y-14542912D01*
X16683634Y-14638150D02*
X16683634Y-14771484D01*
X16683634Y-14657198D02*
X16693158Y-14647674D01*
X16693158Y-14647674D02*
X16712206Y-14638150D01*
X16712206Y-14638150D02*
X16740777Y-14638150D01*
X16740777Y-14638150D02*
X16759825Y-14647674D01*
X16759825Y-14647674D02*
X16769349Y-14666722D01*
X16769349Y-14666722D02*
X16769349Y-14771484D01*
X16893158Y-14771484D02*
X16874111Y-14761960D01*
X16874111Y-14761960D02*
X16864587Y-14752436D01*
X16864587Y-14752436D02*
X16855063Y-14733388D01*
X16855063Y-14733388D02*
X16855063Y-14676246D01*
X16855063Y-14676246D02*
X16864587Y-14657198D01*
X16864587Y-14657198D02*
X16874111Y-14647674D01*
X16874111Y-14647674D02*
X16893158Y-14638150D01*
X16893158Y-14638150D02*
X16921730Y-14638150D01*
X16921730Y-14638150D02*
X16940777Y-14647674D01*
X16940777Y-14647674D02*
X16950301Y-14657198D01*
X16950301Y-14657198D02*
X16959825Y-14676246D01*
X16959825Y-14676246D02*
X16959825Y-14733388D01*
X16959825Y-14733388D02*
X16950301Y-14752436D01*
X16950301Y-14752436D02*
X16940777Y-14761960D01*
X16940777Y-14761960D02*
X16921730Y-14771484D01*
X16921730Y-14771484D02*
X16893158Y-14771484D01*
X17016968Y-14638150D02*
X17093158Y-14638150D01*
X17045539Y-14571484D02*
X17045539Y-14742912D01*
X17045539Y-14742912D02*
X17055063Y-14761960D01*
X17055063Y-14761960D02*
X17074111Y-14771484D01*
X17074111Y-14771484D02*
X17093158Y-14771484D01*
X17312206Y-14638150D02*
X17312206Y-14838150D01*
X17312206Y-14647674D02*
X17331254Y-14638150D01*
X17331254Y-14638150D02*
X17369349Y-14638150D01*
X17369349Y-14638150D02*
X17388396Y-14647674D01*
X17388396Y-14647674D02*
X17397920Y-14657198D01*
X17397920Y-14657198D02*
X17407444Y-14676246D01*
X17407444Y-14676246D02*
X17407444Y-14733388D01*
X17407444Y-14733388D02*
X17397920Y-14752436D01*
X17397920Y-14752436D02*
X17388396Y-14761960D01*
X17388396Y-14761960D02*
X17369349Y-14771484D01*
X17369349Y-14771484D02*
X17331254Y-14771484D01*
X17331254Y-14771484D02*
X17312206Y-14761960D01*
X17521730Y-14771484D02*
X17502682Y-14761960D01*
X17502682Y-14761960D02*
X17493158Y-14742912D01*
X17493158Y-14742912D02*
X17493158Y-14571484D01*
X17683635Y-14771484D02*
X17683635Y-14666722D01*
X17683635Y-14666722D02*
X17674111Y-14647674D01*
X17674111Y-14647674D02*
X17655063Y-14638150D01*
X17655063Y-14638150D02*
X17616968Y-14638150D01*
X17616968Y-14638150D02*
X17597920Y-14647674D01*
X17683635Y-14761960D02*
X17664587Y-14771484D01*
X17664587Y-14771484D02*
X17616968Y-14771484D01*
X17616968Y-14771484D02*
X17597920Y-14761960D01*
X17597920Y-14761960D02*
X17588396Y-14742912D01*
X17588396Y-14742912D02*
X17588396Y-14723865D01*
X17588396Y-14723865D02*
X17597920Y-14704817D01*
X17597920Y-14704817D02*
X17616968Y-14695293D01*
X17616968Y-14695293D02*
X17664587Y-14695293D01*
X17664587Y-14695293D02*
X17683635Y-14685769D01*
X17750301Y-14638150D02*
X17826492Y-14638150D01*
X17778873Y-14571484D02*
X17778873Y-14742912D01*
X17778873Y-14742912D02*
X17788396Y-14761960D01*
X17788396Y-14761960D02*
X17807444Y-14771484D01*
X17807444Y-14771484D02*
X17826492Y-14771484D01*
X17969349Y-14761960D02*
X17950301Y-14771484D01*
X17950301Y-14771484D02*
X17912206Y-14771484D01*
X17912206Y-14771484D02*
X17893158Y-14761960D01*
X17893158Y-14761960D02*
X17883635Y-14742912D01*
X17883635Y-14742912D02*
X17883635Y-14666722D01*
X17883635Y-14666722D02*
X17893158Y-14647674D01*
X17893158Y-14647674D02*
X17912206Y-14638150D01*
X17912206Y-14638150D02*
X17950301Y-14638150D01*
X17950301Y-14638150D02*
X17969349Y-14647674D01*
X17969349Y-14647674D02*
X17978873Y-14666722D01*
X17978873Y-14666722D02*
X17978873Y-14685769D01*
X17978873Y-14685769D02*
X17883635Y-14704817D01*
X18150301Y-14771484D02*
X18150301Y-14571484D01*
X18150301Y-14761960D02*
X18131254Y-14771484D01*
X18131254Y-14771484D02*
X18093158Y-14771484D01*
X18093158Y-14771484D02*
X18074111Y-14761960D01*
X18074111Y-14761960D02*
X18064587Y-14752436D01*
X18064587Y-14752436D02*
X18055063Y-14733388D01*
X18055063Y-14733388D02*
X18055063Y-14676246D01*
X18055063Y-14676246D02*
X18064587Y-14657198D01*
X18064587Y-14657198D02*
X18074111Y-14647674D01*
X18074111Y-14647674D02*
X18093158Y-14638150D01*
X18093158Y-14638150D02*
X18131254Y-14638150D01*
X18131254Y-14638150D02*
X18150301Y-14647674D01*
X18226492Y-14847674D02*
X18236016Y-14838150D01*
X18236016Y-14838150D02*
X18255063Y-14809579D01*
X18255063Y-14809579D02*
X18264587Y-14790531D01*
X18264587Y-14790531D02*
X18274111Y-14761960D01*
X18274111Y-14761960D02*
X18283635Y-14714341D01*
X18283635Y-14714341D02*
X18283635Y-14676246D01*
X18283635Y-14676246D02*
X18274111Y-14628627D01*
X18274111Y-14628627D02*
X18264587Y-14600055D01*
X18264587Y-14600055D02*
X18255063Y-14581008D01*
X18255063Y-14581008D02*
X18236016Y-14552436D01*
X18236016Y-14552436D02*
X18226492Y-14542912D01*
X11280000Y-14970000D02*
G75*
G02*
X11080000Y-14970000I-100000J0D01*
G01*
X11080000Y-14970000D02*
G75*
G02*
X11280000Y-14970000I100000J0D01*
G01*
X11531253Y-14880531D02*
X11540777Y-14871008D01*
X11540777Y-14871008D02*
X11559824Y-14861484D01*
X11559824Y-14861484D02*
X11607443Y-14861484D01*
X11607443Y-14861484D02*
X11626491Y-14871008D01*
X11626491Y-14871008D02*
X11636015Y-14880531D01*
X11636015Y-14880531D02*
X11645539Y-14899579D01*
X11645539Y-14899579D02*
X11645539Y-14918627D01*
X11645539Y-14918627D02*
X11636015Y-14947198D01*
X11636015Y-14947198D02*
X11521729Y-15061484D01*
X11521729Y-15061484D02*
X11645539Y-15061484D01*
X11731253Y-15042436D02*
X11740777Y-15051960D01*
X11740777Y-15051960D02*
X11731253Y-15061484D01*
X11731253Y-15061484D02*
X11721729Y-15051960D01*
X11721729Y-15051960D02*
X11731253Y-15042436D01*
X11731253Y-15042436D02*
X11731253Y-15061484D01*
X11816967Y-14880531D02*
X11826491Y-14871008D01*
X11826491Y-14871008D02*
X11845539Y-14861484D01*
X11845539Y-14861484D02*
X11893158Y-14861484D01*
X11893158Y-14861484D02*
X11912205Y-14871008D01*
X11912205Y-14871008D02*
X11921729Y-14880531D01*
X11921729Y-14880531D02*
X11931253Y-14899579D01*
X11931253Y-14899579D02*
X11931253Y-14918627D01*
X11931253Y-14918627D02*
X11921729Y-14947198D01*
X11921729Y-14947198D02*
X11807443Y-15061484D01*
X11807443Y-15061484D02*
X11931253Y-15061484D01*
X12055062Y-14861484D02*
X12074110Y-14861484D01*
X12074110Y-14861484D02*
X12093158Y-14871008D01*
X12093158Y-14871008D02*
X12102682Y-14880531D01*
X12102682Y-14880531D02*
X12112205Y-14899579D01*
X12112205Y-14899579D02*
X12121729Y-14937674D01*
X12121729Y-14937674D02*
X12121729Y-14985293D01*
X12121729Y-14985293D02*
X12112205Y-15023388D01*
X12112205Y-15023388D02*
X12102682Y-15042436D01*
X12102682Y-15042436D02*
X12093158Y-15051960D01*
X12093158Y-15051960D02*
X12074110Y-15061484D01*
X12074110Y-15061484D02*
X12055062Y-15061484D01*
X12055062Y-15061484D02*
X12036015Y-15051960D01*
X12036015Y-15051960D02*
X12026491Y-15042436D01*
X12026491Y-15042436D02*
X12016967Y-15023388D01*
X12016967Y-15023388D02*
X12007443Y-14985293D01*
X12007443Y-14985293D02*
X12007443Y-14937674D01*
X12007443Y-14937674D02*
X12016967Y-14899579D01*
X12016967Y-14899579D02*
X12026491Y-14880531D01*
X12026491Y-14880531D02*
X12036015Y-14871008D01*
X12036015Y-14871008D02*
X12055062Y-14861484D01*
X12245539Y-14861484D02*
X12264586Y-14861484D01*
X12264586Y-14861484D02*
X12283634Y-14871008D01*
X12283634Y-14871008D02*
X12293158Y-14880531D01*
X12293158Y-14880531D02*
X12302682Y-14899579D01*
X12302682Y-14899579D02*
X12312205Y-14937674D01*
X12312205Y-14937674D02*
X12312205Y-14985293D01*
X12312205Y-14985293D02*
X12302682Y-15023388D01*
X12302682Y-15023388D02*
X12293158Y-15042436D01*
X12293158Y-15042436D02*
X12283634Y-15051960D01*
X12283634Y-15051960D02*
X12264586Y-15061484D01*
X12264586Y-15061484D02*
X12245539Y-15061484D01*
X12245539Y-15061484D02*
X12226491Y-15051960D01*
X12226491Y-15051960D02*
X12216967Y-15042436D01*
X12216967Y-15042436D02*
X12207443Y-15023388D01*
X12207443Y-15023388D02*
X12197920Y-14985293D01*
X12197920Y-14985293D02*
X12197920Y-14937674D01*
X12197920Y-14937674D02*
X12207443Y-14899579D01*
X12207443Y-14899579D02*
X12216967Y-14880531D01*
X12216967Y-14880531D02*
X12226491Y-14871008D01*
X12226491Y-14871008D02*
X12245539Y-14861484D01*
X12397920Y-15061484D02*
X12397920Y-14928150D01*
X12397920Y-14947198D02*
X12407443Y-14937674D01*
X12407443Y-14937674D02*
X12426491Y-14928150D01*
X12426491Y-14928150D02*
X12455063Y-14928150D01*
X12455063Y-14928150D02*
X12474110Y-14937674D01*
X12474110Y-14937674D02*
X12483634Y-14956722D01*
X12483634Y-14956722D02*
X12483634Y-15061484D01*
X12483634Y-14956722D02*
X12493158Y-14937674D01*
X12493158Y-14937674D02*
X12512205Y-14928150D01*
X12512205Y-14928150D02*
X12540777Y-14928150D01*
X12540777Y-14928150D02*
X12559824Y-14937674D01*
X12559824Y-14937674D02*
X12569348Y-14956722D01*
X12569348Y-14956722D02*
X12569348Y-15061484D01*
X12664586Y-15061484D02*
X12664586Y-14928150D01*
X12664586Y-14947198D02*
X12674110Y-14937674D01*
X12674110Y-14937674D02*
X12693158Y-14928150D01*
X12693158Y-14928150D02*
X12721729Y-14928150D01*
X12721729Y-14928150D02*
X12740777Y-14937674D01*
X12740777Y-14937674D02*
X12750301Y-14956722D01*
X12750301Y-14956722D02*
X12750301Y-15061484D01*
X12750301Y-14956722D02*
X12759824Y-14937674D01*
X12759824Y-14937674D02*
X12778872Y-14928150D01*
X12778872Y-14928150D02*
X12807443Y-14928150D01*
X12807443Y-14928150D02*
X12826491Y-14937674D01*
X12826491Y-14937674D02*
X12836015Y-14956722D01*
X12836015Y-14956722D02*
X12836015Y-15061484D01*
X13226491Y-14851960D02*
X13055063Y-15109103D01*
X13483634Y-14861484D02*
X13502682Y-14861484D01*
X13502682Y-14861484D02*
X13521729Y-14871008D01*
X13521729Y-14871008D02*
X13531253Y-14880531D01*
X13531253Y-14880531D02*
X13540777Y-14899579D01*
X13540777Y-14899579D02*
X13550301Y-14937674D01*
X13550301Y-14937674D02*
X13550301Y-14985293D01*
X13550301Y-14985293D02*
X13540777Y-15023388D01*
X13540777Y-15023388D02*
X13531253Y-15042436D01*
X13531253Y-15042436D02*
X13521729Y-15051960D01*
X13521729Y-15051960D02*
X13502682Y-15061484D01*
X13502682Y-15061484D02*
X13483634Y-15061484D01*
X13483634Y-15061484D02*
X13464586Y-15051960D01*
X13464586Y-15051960D02*
X13455063Y-15042436D01*
X13455063Y-15042436D02*
X13445539Y-15023388D01*
X13445539Y-15023388D02*
X13436015Y-14985293D01*
X13436015Y-14985293D02*
X13436015Y-14937674D01*
X13436015Y-14937674D02*
X13445539Y-14899579D01*
X13445539Y-14899579D02*
X13455063Y-14880531D01*
X13455063Y-14880531D02*
X13464586Y-14871008D01*
X13464586Y-14871008D02*
X13483634Y-14861484D01*
X13636015Y-15042436D02*
X13645539Y-15051960D01*
X13645539Y-15051960D02*
X13636015Y-15061484D01*
X13636015Y-15061484D02*
X13626491Y-15051960D01*
X13626491Y-15051960D02*
X13636015Y-15042436D01*
X13636015Y-15042436D02*
X13636015Y-15061484D01*
X13769348Y-14861484D02*
X13788396Y-14861484D01*
X13788396Y-14861484D02*
X13807444Y-14871008D01*
X13807444Y-14871008D02*
X13816967Y-14880531D01*
X13816967Y-14880531D02*
X13826491Y-14899579D01*
X13826491Y-14899579D02*
X13836015Y-14937674D01*
X13836015Y-14937674D02*
X13836015Y-14985293D01*
X13836015Y-14985293D02*
X13826491Y-15023388D01*
X13826491Y-15023388D02*
X13816967Y-15042436D01*
X13816967Y-15042436D02*
X13807444Y-15051960D01*
X13807444Y-15051960D02*
X13788396Y-15061484D01*
X13788396Y-15061484D02*
X13769348Y-15061484D01*
X13769348Y-15061484D02*
X13750301Y-15051960D01*
X13750301Y-15051960D02*
X13740777Y-15042436D01*
X13740777Y-15042436D02*
X13731253Y-15023388D01*
X13731253Y-15023388D02*
X13721729Y-14985293D01*
X13721729Y-14985293D02*
X13721729Y-14937674D01*
X13721729Y-14937674D02*
X13731253Y-14899579D01*
X13731253Y-14899579D02*
X13740777Y-14880531D01*
X13740777Y-14880531D02*
X13750301Y-14871008D01*
X13750301Y-14871008D02*
X13769348Y-14861484D01*
X13950301Y-14947198D02*
X13931253Y-14937674D01*
X13931253Y-14937674D02*
X13921729Y-14928150D01*
X13921729Y-14928150D02*
X13912206Y-14909103D01*
X13912206Y-14909103D02*
X13912206Y-14899579D01*
X13912206Y-14899579D02*
X13921729Y-14880531D01*
X13921729Y-14880531D02*
X13931253Y-14871008D01*
X13931253Y-14871008D02*
X13950301Y-14861484D01*
X13950301Y-14861484D02*
X13988396Y-14861484D01*
X13988396Y-14861484D02*
X14007444Y-14871008D01*
X14007444Y-14871008D02*
X14016967Y-14880531D01*
X14016967Y-14880531D02*
X14026491Y-14899579D01*
X14026491Y-14899579D02*
X14026491Y-14909103D01*
X14026491Y-14909103D02*
X14016967Y-14928150D01*
X14016967Y-14928150D02*
X14007444Y-14937674D01*
X14007444Y-14937674D02*
X13988396Y-14947198D01*
X13988396Y-14947198D02*
X13950301Y-14947198D01*
X13950301Y-14947198D02*
X13931253Y-14956722D01*
X13931253Y-14956722D02*
X13921729Y-14966246D01*
X13921729Y-14966246D02*
X13912206Y-14985293D01*
X13912206Y-14985293D02*
X13912206Y-15023388D01*
X13912206Y-15023388D02*
X13921729Y-15042436D01*
X13921729Y-15042436D02*
X13931253Y-15051960D01*
X13931253Y-15051960D02*
X13950301Y-15061484D01*
X13950301Y-15061484D02*
X13988396Y-15061484D01*
X13988396Y-15061484D02*
X14007444Y-15051960D01*
X14007444Y-15051960D02*
X14016967Y-15042436D01*
X14016967Y-15042436D02*
X14026491Y-15023388D01*
X14026491Y-15023388D02*
X14026491Y-14985293D01*
X14026491Y-14985293D02*
X14016967Y-14966246D01*
X14016967Y-14966246D02*
X14007444Y-14956722D01*
X14007444Y-14956722D02*
X13988396Y-14947198D01*
X14197920Y-14861484D02*
X14159825Y-14861484D01*
X14159825Y-14861484D02*
X14140777Y-14871008D01*
X14140777Y-14871008D02*
X14131253Y-14880531D01*
X14131253Y-14880531D02*
X14112206Y-14909103D01*
X14112206Y-14909103D02*
X14102682Y-14947198D01*
X14102682Y-14947198D02*
X14102682Y-15023388D01*
X14102682Y-15023388D02*
X14112206Y-15042436D01*
X14112206Y-15042436D02*
X14121729Y-15051960D01*
X14121729Y-15051960D02*
X14140777Y-15061484D01*
X14140777Y-15061484D02*
X14178872Y-15061484D01*
X14178872Y-15061484D02*
X14197920Y-15051960D01*
X14197920Y-15051960D02*
X14207444Y-15042436D01*
X14207444Y-15042436D02*
X14216967Y-15023388D01*
X14216967Y-15023388D02*
X14216967Y-14975769D01*
X14216967Y-14975769D02*
X14207444Y-14956722D01*
X14207444Y-14956722D02*
X14197920Y-14947198D01*
X14197920Y-14947198D02*
X14178872Y-14937674D01*
X14178872Y-14937674D02*
X14140777Y-14937674D01*
X14140777Y-14937674D02*
X14121729Y-14947198D01*
X14121729Y-14947198D02*
X14112206Y-14956722D01*
X14112206Y-14956722D02*
X14102682Y-14975769D01*
X14388396Y-14861484D02*
X14350301Y-14861484D01*
X14350301Y-14861484D02*
X14331253Y-14871008D01*
X14331253Y-14871008D02*
X14321729Y-14880531D01*
X14321729Y-14880531D02*
X14302682Y-14909103D01*
X14302682Y-14909103D02*
X14293158Y-14947198D01*
X14293158Y-14947198D02*
X14293158Y-15023388D01*
X14293158Y-15023388D02*
X14302682Y-15042436D01*
X14302682Y-15042436D02*
X14312206Y-15051960D01*
X14312206Y-15051960D02*
X14331253Y-15061484D01*
X14331253Y-15061484D02*
X14369348Y-15061484D01*
X14369348Y-15061484D02*
X14388396Y-15051960D01*
X14388396Y-15051960D02*
X14397920Y-15042436D01*
X14397920Y-15042436D02*
X14407444Y-15023388D01*
X14407444Y-15023388D02*
X14407444Y-14975769D01*
X14407444Y-14975769D02*
X14397920Y-14956722D01*
X14397920Y-14956722D02*
X14388396Y-14947198D01*
X14388396Y-14947198D02*
X14369348Y-14937674D01*
X14369348Y-14937674D02*
X14331253Y-14937674D01*
X14331253Y-14937674D02*
X14312206Y-14947198D01*
X14312206Y-14947198D02*
X14302682Y-14956722D01*
X14302682Y-14956722D02*
X14293158Y-14975769D01*
X14483634Y-14861484D02*
X14483634Y-14899579D01*
X14559825Y-14861484D02*
X14559825Y-14899579D01*
X14855063Y-15137674D02*
X14845539Y-15128150D01*
X14845539Y-15128150D02*
X14826491Y-15099579D01*
X14826491Y-15099579D02*
X14816968Y-15080531D01*
X14816968Y-15080531D02*
X14807444Y-15051960D01*
X14807444Y-15051960D02*
X14797920Y-15004341D01*
X14797920Y-15004341D02*
X14797920Y-14966246D01*
X14797920Y-14966246D02*
X14807444Y-14918627D01*
X14807444Y-14918627D02*
X14816968Y-14890055D01*
X14816968Y-14890055D02*
X14826491Y-14871008D01*
X14826491Y-14871008D02*
X14845539Y-14842436D01*
X14845539Y-14842436D02*
X14855063Y-14832912D01*
X14921729Y-14880531D02*
X14931253Y-14871008D01*
X14931253Y-14871008D02*
X14950301Y-14861484D01*
X14950301Y-14861484D02*
X14997920Y-14861484D01*
X14997920Y-14861484D02*
X15016968Y-14871008D01*
X15016968Y-14871008D02*
X15026491Y-14880531D01*
X15026491Y-14880531D02*
X15036015Y-14899579D01*
X15036015Y-14899579D02*
X15036015Y-14918627D01*
X15036015Y-14918627D02*
X15026491Y-14947198D01*
X15026491Y-14947198D02*
X14912206Y-15061484D01*
X14912206Y-15061484D02*
X15036015Y-15061484D01*
X15274110Y-15061484D02*
X15274110Y-14861484D01*
X15359825Y-15061484D02*
X15359825Y-14956722D01*
X15359825Y-14956722D02*
X15350301Y-14937674D01*
X15350301Y-14937674D02*
X15331253Y-14928150D01*
X15331253Y-14928150D02*
X15302682Y-14928150D01*
X15302682Y-14928150D02*
X15283634Y-14937674D01*
X15283634Y-14937674D02*
X15274110Y-14947198D01*
X15483634Y-15061484D02*
X15464587Y-15051960D01*
X15464587Y-15051960D02*
X15455063Y-15042436D01*
X15455063Y-15042436D02*
X15445539Y-15023388D01*
X15445539Y-15023388D02*
X15445539Y-14966246D01*
X15445539Y-14966246D02*
X15455063Y-14947198D01*
X15455063Y-14947198D02*
X15464587Y-14937674D01*
X15464587Y-14937674D02*
X15483634Y-14928150D01*
X15483634Y-14928150D02*
X15512206Y-14928150D01*
X15512206Y-14928150D02*
X15531253Y-14937674D01*
X15531253Y-14937674D02*
X15540777Y-14947198D01*
X15540777Y-14947198D02*
X15550301Y-14966246D01*
X15550301Y-14966246D02*
X15550301Y-15023388D01*
X15550301Y-15023388D02*
X15540777Y-15042436D01*
X15540777Y-15042436D02*
X15531253Y-15051960D01*
X15531253Y-15051960D02*
X15512206Y-15061484D01*
X15512206Y-15061484D02*
X15483634Y-15061484D01*
X15664587Y-15061484D02*
X15645539Y-15051960D01*
X15645539Y-15051960D02*
X15636015Y-15032912D01*
X15636015Y-15032912D02*
X15636015Y-14861484D01*
X15816968Y-15051960D02*
X15797920Y-15061484D01*
X15797920Y-15061484D02*
X15759825Y-15061484D01*
X15759825Y-15061484D02*
X15740777Y-15051960D01*
X15740777Y-15051960D02*
X15731253Y-15032912D01*
X15731253Y-15032912D02*
X15731253Y-14956722D01*
X15731253Y-14956722D02*
X15740777Y-14937674D01*
X15740777Y-14937674D02*
X15759825Y-14928150D01*
X15759825Y-14928150D02*
X15797920Y-14928150D01*
X15797920Y-14928150D02*
X15816968Y-14937674D01*
X15816968Y-14937674D02*
X15826491Y-14956722D01*
X15826491Y-14956722D02*
X15826491Y-14975769D01*
X15826491Y-14975769D02*
X15731253Y-14994817D01*
X15902682Y-15051960D02*
X15921730Y-15061484D01*
X15921730Y-15061484D02*
X15959825Y-15061484D01*
X15959825Y-15061484D02*
X15978872Y-15051960D01*
X15978872Y-15051960D02*
X15988396Y-15032912D01*
X15988396Y-15032912D02*
X15988396Y-15023388D01*
X15988396Y-15023388D02*
X15978872Y-15004341D01*
X15978872Y-15004341D02*
X15959825Y-14994817D01*
X15959825Y-14994817D02*
X15931253Y-14994817D01*
X15931253Y-14994817D02*
X15912206Y-14985293D01*
X15912206Y-14985293D02*
X15902682Y-14966246D01*
X15902682Y-14966246D02*
X15902682Y-14956722D01*
X15902682Y-14956722D02*
X15912206Y-14937674D01*
X15912206Y-14937674D02*
X15931253Y-14928150D01*
X15931253Y-14928150D02*
X15959825Y-14928150D01*
X15959825Y-14928150D02*
X15978872Y-14937674D01*
X16055063Y-15137674D02*
X16064587Y-15128150D01*
X16064587Y-15128150D02*
X16083634Y-15099579D01*
X16083634Y-15099579D02*
X16093158Y-15080531D01*
X16093158Y-15080531D02*
X16102682Y-15051960D01*
X16102682Y-15051960D02*
X16112206Y-15004341D01*
X16112206Y-15004341D02*
X16112206Y-14966246D01*
X16112206Y-14966246D02*
X16102682Y-14918627D01*
X16102682Y-14918627D02*
X16093158Y-14890055D01*
X16093158Y-14890055D02*
X16083634Y-14871008D01*
X16083634Y-14871008D02*
X16064587Y-14842436D01*
X16064587Y-14842436D02*
X16055063Y-14832912D01*
X16416968Y-15137674D02*
X16407444Y-15128150D01*
X16407444Y-15128150D02*
X16388396Y-15099579D01*
X16388396Y-15099579D02*
X16378872Y-15080531D01*
X16378872Y-15080531D02*
X16369349Y-15051960D01*
X16369349Y-15051960D02*
X16359825Y-15004341D01*
X16359825Y-15004341D02*
X16359825Y-14966246D01*
X16359825Y-14966246D02*
X16369349Y-14918627D01*
X16369349Y-14918627D02*
X16378872Y-14890055D01*
X16378872Y-14890055D02*
X16388396Y-14871008D01*
X16388396Y-14871008D02*
X16407444Y-14842436D01*
X16407444Y-14842436D02*
X16416968Y-14832912D01*
X16493158Y-14928150D02*
X16493158Y-15061484D01*
X16493158Y-14947198D02*
X16502682Y-14937674D01*
X16502682Y-14937674D02*
X16521730Y-14928150D01*
X16521730Y-14928150D02*
X16550301Y-14928150D01*
X16550301Y-14928150D02*
X16569349Y-14937674D01*
X16569349Y-14937674D02*
X16578872Y-14956722D01*
X16578872Y-14956722D02*
X16578872Y-15061484D01*
X16702682Y-15061484D02*
X16683634Y-15051960D01*
X16683634Y-15051960D02*
X16674111Y-15042436D01*
X16674111Y-15042436D02*
X16664587Y-15023388D01*
X16664587Y-15023388D02*
X16664587Y-14966246D01*
X16664587Y-14966246D02*
X16674111Y-14947198D01*
X16674111Y-14947198D02*
X16683634Y-14937674D01*
X16683634Y-14937674D02*
X16702682Y-14928150D01*
X16702682Y-14928150D02*
X16731253Y-14928150D01*
X16731253Y-14928150D02*
X16750301Y-14937674D01*
X16750301Y-14937674D02*
X16759825Y-14947198D01*
X16759825Y-14947198D02*
X16769349Y-14966246D01*
X16769349Y-14966246D02*
X16769349Y-15023388D01*
X16769349Y-15023388D02*
X16759825Y-15042436D01*
X16759825Y-15042436D02*
X16750301Y-15051960D01*
X16750301Y-15051960D02*
X16731253Y-15061484D01*
X16731253Y-15061484D02*
X16702682Y-15061484D01*
X16826492Y-14928150D02*
X16902682Y-14928150D01*
X16855063Y-14861484D02*
X16855063Y-15032912D01*
X16855063Y-15032912D02*
X16864587Y-15051960D01*
X16864587Y-15051960D02*
X16883634Y-15061484D01*
X16883634Y-15061484D02*
X16902682Y-15061484D01*
X17121730Y-14928150D02*
X17121730Y-15128150D01*
X17121730Y-14937674D02*
X17140777Y-14928150D01*
X17140777Y-14928150D02*
X17178873Y-14928150D01*
X17178873Y-14928150D02*
X17197920Y-14937674D01*
X17197920Y-14937674D02*
X17207444Y-14947198D01*
X17207444Y-14947198D02*
X17216968Y-14966246D01*
X17216968Y-14966246D02*
X17216968Y-15023388D01*
X17216968Y-15023388D02*
X17207444Y-15042436D01*
X17207444Y-15042436D02*
X17197920Y-15051960D01*
X17197920Y-15051960D02*
X17178873Y-15061484D01*
X17178873Y-15061484D02*
X17140777Y-15061484D01*
X17140777Y-15061484D02*
X17121730Y-15051960D01*
X17331254Y-15061484D02*
X17312206Y-15051960D01*
X17312206Y-15051960D02*
X17302682Y-15032912D01*
X17302682Y-15032912D02*
X17302682Y-14861484D01*
X17493158Y-15061484D02*
X17493158Y-14956722D01*
X17493158Y-14956722D02*
X17483635Y-14937674D01*
X17483635Y-14937674D02*
X17464587Y-14928150D01*
X17464587Y-14928150D02*
X17426492Y-14928150D01*
X17426492Y-14928150D02*
X17407444Y-14937674D01*
X17493158Y-15051960D02*
X17474111Y-15061484D01*
X17474111Y-15061484D02*
X17426492Y-15061484D01*
X17426492Y-15061484D02*
X17407444Y-15051960D01*
X17407444Y-15051960D02*
X17397920Y-15032912D01*
X17397920Y-15032912D02*
X17397920Y-15013865D01*
X17397920Y-15013865D02*
X17407444Y-14994817D01*
X17407444Y-14994817D02*
X17426492Y-14985293D01*
X17426492Y-14985293D02*
X17474111Y-14985293D01*
X17474111Y-14985293D02*
X17493158Y-14975769D01*
X17559825Y-14928150D02*
X17636015Y-14928150D01*
X17588396Y-14861484D02*
X17588396Y-15032912D01*
X17588396Y-15032912D02*
X17597920Y-15051960D01*
X17597920Y-15051960D02*
X17616968Y-15061484D01*
X17616968Y-15061484D02*
X17636015Y-15061484D01*
X17778873Y-15051960D02*
X17759825Y-15061484D01*
X17759825Y-15061484D02*
X17721730Y-15061484D01*
X17721730Y-15061484D02*
X17702682Y-15051960D01*
X17702682Y-15051960D02*
X17693158Y-15032912D01*
X17693158Y-15032912D02*
X17693158Y-14956722D01*
X17693158Y-14956722D02*
X17702682Y-14937674D01*
X17702682Y-14937674D02*
X17721730Y-14928150D01*
X17721730Y-14928150D02*
X17759825Y-14928150D01*
X17759825Y-14928150D02*
X17778873Y-14937674D01*
X17778873Y-14937674D02*
X17788396Y-14956722D01*
X17788396Y-14956722D02*
X17788396Y-14975769D01*
X17788396Y-14975769D02*
X17693158Y-14994817D01*
X17959825Y-15061484D02*
X17959825Y-14861484D01*
X17959825Y-15051960D02*
X17940777Y-15061484D01*
X17940777Y-15061484D02*
X17902682Y-15061484D01*
X17902682Y-15061484D02*
X17883635Y-15051960D01*
X17883635Y-15051960D02*
X17874111Y-15042436D01*
X17874111Y-15042436D02*
X17864587Y-15023388D01*
X17864587Y-15023388D02*
X17864587Y-14966246D01*
X17864587Y-14966246D02*
X17874111Y-14947198D01*
X17874111Y-14947198D02*
X17883635Y-14937674D01*
X17883635Y-14937674D02*
X17902682Y-14928150D01*
X17902682Y-14928150D02*
X17940777Y-14928150D01*
X17940777Y-14928150D02*
X17959825Y-14937674D01*
X18036016Y-15137674D02*
X18045539Y-15128150D01*
X18045539Y-15128150D02*
X18064587Y-15099579D01*
X18064587Y-15099579D02*
X18074111Y-15080531D01*
X18074111Y-15080531D02*
X18083635Y-15051960D01*
X18083635Y-15051960D02*
X18093158Y-15004341D01*
X18093158Y-15004341D02*
X18093158Y-14966246D01*
X18093158Y-14966246D02*
X18083635Y-14918627D01*
X18083635Y-14918627D02*
X18074111Y-14890055D01*
X18074111Y-14890055D02*
X18064587Y-14871008D01*
X18064587Y-14871008D02*
X18045539Y-14842436D01*
X18045539Y-14842436D02*
X18036016Y-14832912D01*
X11180000Y-15190000D02*
X11180000Y-15390000D01*
X11080000Y-15290000D02*
X11280000Y-15290000D01*
X11626491Y-15248150D02*
X11626491Y-15381484D01*
X11578872Y-15171960D02*
X11531253Y-15314817D01*
X11531253Y-15314817D02*
X11655062Y-15314817D01*
X11731253Y-15362436D02*
X11740777Y-15371960D01*
X11740777Y-15371960D02*
X11731253Y-15381484D01*
X11731253Y-15381484D02*
X11721729Y-15371960D01*
X11721729Y-15371960D02*
X11731253Y-15362436D01*
X11731253Y-15362436D02*
X11731253Y-15381484D01*
X11864586Y-15181484D02*
X11883634Y-15181484D01*
X11883634Y-15181484D02*
X11902682Y-15191008D01*
X11902682Y-15191008D02*
X11912205Y-15200531D01*
X11912205Y-15200531D02*
X11921729Y-15219579D01*
X11921729Y-15219579D02*
X11931253Y-15257674D01*
X11931253Y-15257674D02*
X11931253Y-15305293D01*
X11931253Y-15305293D02*
X11921729Y-15343388D01*
X11921729Y-15343388D02*
X11912205Y-15362436D01*
X11912205Y-15362436D02*
X11902682Y-15371960D01*
X11902682Y-15371960D02*
X11883634Y-15381484D01*
X11883634Y-15381484D02*
X11864586Y-15381484D01*
X11864586Y-15381484D02*
X11845539Y-15371960D01*
X11845539Y-15371960D02*
X11836015Y-15362436D01*
X11836015Y-15362436D02*
X11826491Y-15343388D01*
X11826491Y-15343388D02*
X11816967Y-15305293D01*
X11816967Y-15305293D02*
X11816967Y-15257674D01*
X11816967Y-15257674D02*
X11826491Y-15219579D01*
X11826491Y-15219579D02*
X11836015Y-15200531D01*
X11836015Y-15200531D02*
X11845539Y-15191008D01*
X11845539Y-15191008D02*
X11864586Y-15181484D01*
X12055062Y-15181484D02*
X12074110Y-15181484D01*
X12074110Y-15181484D02*
X12093158Y-15191008D01*
X12093158Y-15191008D02*
X12102682Y-15200531D01*
X12102682Y-15200531D02*
X12112205Y-15219579D01*
X12112205Y-15219579D02*
X12121729Y-15257674D01*
X12121729Y-15257674D02*
X12121729Y-15305293D01*
X12121729Y-15305293D02*
X12112205Y-15343388D01*
X12112205Y-15343388D02*
X12102682Y-15362436D01*
X12102682Y-15362436D02*
X12093158Y-15371960D01*
X12093158Y-15371960D02*
X12074110Y-15381484D01*
X12074110Y-15381484D02*
X12055062Y-15381484D01*
X12055062Y-15381484D02*
X12036015Y-15371960D01*
X12036015Y-15371960D02*
X12026491Y-15362436D01*
X12026491Y-15362436D02*
X12016967Y-15343388D01*
X12016967Y-15343388D02*
X12007443Y-15305293D01*
X12007443Y-15305293D02*
X12007443Y-15257674D01*
X12007443Y-15257674D02*
X12016967Y-15219579D01*
X12016967Y-15219579D02*
X12026491Y-15200531D01*
X12026491Y-15200531D02*
X12036015Y-15191008D01*
X12036015Y-15191008D02*
X12055062Y-15181484D01*
X12245539Y-15181484D02*
X12264586Y-15181484D01*
X12264586Y-15181484D02*
X12283634Y-15191008D01*
X12283634Y-15191008D02*
X12293158Y-15200531D01*
X12293158Y-15200531D02*
X12302682Y-15219579D01*
X12302682Y-15219579D02*
X12312205Y-15257674D01*
X12312205Y-15257674D02*
X12312205Y-15305293D01*
X12312205Y-15305293D02*
X12302682Y-15343388D01*
X12302682Y-15343388D02*
X12293158Y-15362436D01*
X12293158Y-15362436D02*
X12283634Y-15371960D01*
X12283634Y-15371960D02*
X12264586Y-15381484D01*
X12264586Y-15381484D02*
X12245539Y-15381484D01*
X12245539Y-15381484D02*
X12226491Y-15371960D01*
X12226491Y-15371960D02*
X12216967Y-15362436D01*
X12216967Y-15362436D02*
X12207443Y-15343388D01*
X12207443Y-15343388D02*
X12197920Y-15305293D01*
X12197920Y-15305293D02*
X12197920Y-15257674D01*
X12197920Y-15257674D02*
X12207443Y-15219579D01*
X12207443Y-15219579D02*
X12216967Y-15200531D01*
X12216967Y-15200531D02*
X12226491Y-15191008D01*
X12226491Y-15191008D02*
X12245539Y-15181484D01*
X12397920Y-15381484D02*
X12397920Y-15248150D01*
X12397920Y-15267198D02*
X12407443Y-15257674D01*
X12407443Y-15257674D02*
X12426491Y-15248150D01*
X12426491Y-15248150D02*
X12455063Y-15248150D01*
X12455063Y-15248150D02*
X12474110Y-15257674D01*
X12474110Y-15257674D02*
X12483634Y-15276722D01*
X12483634Y-15276722D02*
X12483634Y-15381484D01*
X12483634Y-15276722D02*
X12493158Y-15257674D01*
X12493158Y-15257674D02*
X12512205Y-15248150D01*
X12512205Y-15248150D02*
X12540777Y-15248150D01*
X12540777Y-15248150D02*
X12559824Y-15257674D01*
X12559824Y-15257674D02*
X12569348Y-15276722D01*
X12569348Y-15276722D02*
X12569348Y-15381484D01*
X12664586Y-15381484D02*
X12664586Y-15248150D01*
X12664586Y-15267198D02*
X12674110Y-15257674D01*
X12674110Y-15257674D02*
X12693158Y-15248150D01*
X12693158Y-15248150D02*
X12721729Y-15248150D01*
X12721729Y-15248150D02*
X12740777Y-15257674D01*
X12740777Y-15257674D02*
X12750301Y-15276722D01*
X12750301Y-15276722D02*
X12750301Y-15381484D01*
X12750301Y-15276722D02*
X12759824Y-15257674D01*
X12759824Y-15257674D02*
X12778872Y-15248150D01*
X12778872Y-15248150D02*
X12807443Y-15248150D01*
X12807443Y-15248150D02*
X12826491Y-15257674D01*
X12826491Y-15257674D02*
X12836015Y-15276722D01*
X12836015Y-15276722D02*
X12836015Y-15381484D01*
X13226491Y-15171960D02*
X13055063Y-15429103D01*
X13483634Y-15181484D02*
X13502682Y-15181484D01*
X13502682Y-15181484D02*
X13521729Y-15191008D01*
X13521729Y-15191008D02*
X13531253Y-15200531D01*
X13531253Y-15200531D02*
X13540777Y-15219579D01*
X13540777Y-15219579D02*
X13550301Y-15257674D01*
X13550301Y-15257674D02*
X13550301Y-15305293D01*
X13550301Y-15305293D02*
X13540777Y-15343388D01*
X13540777Y-15343388D02*
X13531253Y-15362436D01*
X13531253Y-15362436D02*
X13521729Y-15371960D01*
X13521729Y-15371960D02*
X13502682Y-15381484D01*
X13502682Y-15381484D02*
X13483634Y-15381484D01*
X13483634Y-15381484D02*
X13464586Y-15371960D01*
X13464586Y-15371960D02*
X13455063Y-15362436D01*
X13455063Y-15362436D02*
X13445539Y-15343388D01*
X13445539Y-15343388D02*
X13436015Y-15305293D01*
X13436015Y-15305293D02*
X13436015Y-15257674D01*
X13436015Y-15257674D02*
X13445539Y-15219579D01*
X13445539Y-15219579D02*
X13455063Y-15200531D01*
X13455063Y-15200531D02*
X13464586Y-15191008D01*
X13464586Y-15191008D02*
X13483634Y-15181484D01*
X13636015Y-15362436D02*
X13645539Y-15371960D01*
X13645539Y-15371960D02*
X13636015Y-15381484D01*
X13636015Y-15381484D02*
X13626491Y-15371960D01*
X13626491Y-15371960D02*
X13636015Y-15362436D01*
X13636015Y-15362436D02*
X13636015Y-15381484D01*
X13836015Y-15381484D02*
X13721729Y-15381484D01*
X13778872Y-15381484D02*
X13778872Y-15181484D01*
X13778872Y-15181484D02*
X13759825Y-15210055D01*
X13759825Y-15210055D02*
X13740777Y-15229103D01*
X13740777Y-15229103D02*
X13721729Y-15238627D01*
X14016967Y-15181484D02*
X13921729Y-15181484D01*
X13921729Y-15181484D02*
X13912206Y-15276722D01*
X13912206Y-15276722D02*
X13921729Y-15267198D01*
X13921729Y-15267198D02*
X13940777Y-15257674D01*
X13940777Y-15257674D02*
X13988396Y-15257674D01*
X13988396Y-15257674D02*
X14007444Y-15267198D01*
X14007444Y-15267198D02*
X14016967Y-15276722D01*
X14016967Y-15276722D02*
X14026491Y-15295769D01*
X14026491Y-15295769D02*
X14026491Y-15343388D01*
X14026491Y-15343388D02*
X14016967Y-15362436D01*
X14016967Y-15362436D02*
X14007444Y-15371960D01*
X14007444Y-15371960D02*
X13988396Y-15381484D01*
X13988396Y-15381484D02*
X13940777Y-15381484D01*
X13940777Y-15381484D02*
X13921729Y-15371960D01*
X13921729Y-15371960D02*
X13912206Y-15362436D01*
X14093158Y-15181484D02*
X14226491Y-15181484D01*
X14226491Y-15181484D02*
X14140777Y-15381484D01*
X14397920Y-15181484D02*
X14302682Y-15181484D01*
X14302682Y-15181484D02*
X14293158Y-15276722D01*
X14293158Y-15276722D02*
X14302682Y-15267198D01*
X14302682Y-15267198D02*
X14321729Y-15257674D01*
X14321729Y-15257674D02*
X14369348Y-15257674D01*
X14369348Y-15257674D02*
X14388396Y-15267198D01*
X14388396Y-15267198D02*
X14397920Y-15276722D01*
X14397920Y-15276722D02*
X14407444Y-15295769D01*
X14407444Y-15295769D02*
X14407444Y-15343388D01*
X14407444Y-15343388D02*
X14397920Y-15362436D01*
X14397920Y-15362436D02*
X14388396Y-15371960D01*
X14388396Y-15371960D02*
X14369348Y-15381484D01*
X14369348Y-15381484D02*
X14321729Y-15381484D01*
X14321729Y-15381484D02*
X14302682Y-15371960D01*
X14302682Y-15371960D02*
X14293158Y-15362436D01*
X14483634Y-15181484D02*
X14483634Y-15219579D01*
X14559825Y-15181484D02*
X14559825Y-15219579D01*
X14855063Y-15457674D02*
X14845539Y-15448150D01*
X14845539Y-15448150D02*
X14826491Y-15419579D01*
X14826491Y-15419579D02*
X14816968Y-15400531D01*
X14816968Y-15400531D02*
X14807444Y-15371960D01*
X14807444Y-15371960D02*
X14797920Y-15324341D01*
X14797920Y-15324341D02*
X14797920Y-15286246D01*
X14797920Y-15286246D02*
X14807444Y-15238627D01*
X14807444Y-15238627D02*
X14816968Y-15210055D01*
X14816968Y-15210055D02*
X14826491Y-15191008D01*
X14826491Y-15191008D02*
X14845539Y-15162436D01*
X14845539Y-15162436D02*
X14855063Y-15152912D01*
X15016968Y-15181484D02*
X14978872Y-15181484D01*
X14978872Y-15181484D02*
X14959825Y-15191008D01*
X14959825Y-15191008D02*
X14950301Y-15200531D01*
X14950301Y-15200531D02*
X14931253Y-15229103D01*
X14931253Y-15229103D02*
X14921729Y-15267198D01*
X14921729Y-15267198D02*
X14921729Y-15343388D01*
X14921729Y-15343388D02*
X14931253Y-15362436D01*
X14931253Y-15362436D02*
X14940777Y-15371960D01*
X14940777Y-15371960D02*
X14959825Y-15381484D01*
X14959825Y-15381484D02*
X14997920Y-15381484D01*
X14997920Y-15381484D02*
X15016968Y-15371960D01*
X15016968Y-15371960D02*
X15026491Y-15362436D01*
X15026491Y-15362436D02*
X15036015Y-15343388D01*
X15036015Y-15343388D02*
X15036015Y-15295769D01*
X15036015Y-15295769D02*
X15026491Y-15276722D01*
X15026491Y-15276722D02*
X15016968Y-15267198D01*
X15016968Y-15267198D02*
X14997920Y-15257674D01*
X14997920Y-15257674D02*
X14959825Y-15257674D01*
X14959825Y-15257674D02*
X14940777Y-15267198D01*
X14940777Y-15267198D02*
X14931253Y-15276722D01*
X14931253Y-15276722D02*
X14921729Y-15295769D01*
X15274110Y-15381484D02*
X15274110Y-15181484D01*
X15359825Y-15381484D02*
X15359825Y-15276722D01*
X15359825Y-15276722D02*
X15350301Y-15257674D01*
X15350301Y-15257674D02*
X15331253Y-15248150D01*
X15331253Y-15248150D02*
X15302682Y-15248150D01*
X15302682Y-15248150D02*
X15283634Y-15257674D01*
X15283634Y-15257674D02*
X15274110Y-15267198D01*
X15483634Y-15381484D02*
X15464587Y-15371960D01*
X15464587Y-15371960D02*
X15455063Y-15362436D01*
X15455063Y-15362436D02*
X15445539Y-15343388D01*
X15445539Y-15343388D02*
X15445539Y-15286246D01*
X15445539Y-15286246D02*
X15455063Y-15267198D01*
X15455063Y-15267198D02*
X15464587Y-15257674D01*
X15464587Y-15257674D02*
X15483634Y-15248150D01*
X15483634Y-15248150D02*
X15512206Y-15248150D01*
X15512206Y-15248150D02*
X15531253Y-15257674D01*
X15531253Y-15257674D02*
X15540777Y-15267198D01*
X15540777Y-15267198D02*
X15550301Y-15286246D01*
X15550301Y-15286246D02*
X15550301Y-15343388D01*
X15550301Y-15343388D02*
X15540777Y-15362436D01*
X15540777Y-15362436D02*
X15531253Y-15371960D01*
X15531253Y-15371960D02*
X15512206Y-15381484D01*
X15512206Y-15381484D02*
X15483634Y-15381484D01*
X15664587Y-15381484D02*
X15645539Y-15371960D01*
X15645539Y-15371960D02*
X15636015Y-15352912D01*
X15636015Y-15352912D02*
X15636015Y-15181484D01*
X15816968Y-15371960D02*
X15797920Y-15381484D01*
X15797920Y-15381484D02*
X15759825Y-15381484D01*
X15759825Y-15381484D02*
X15740777Y-15371960D01*
X15740777Y-15371960D02*
X15731253Y-15352912D01*
X15731253Y-15352912D02*
X15731253Y-15276722D01*
X15731253Y-15276722D02*
X15740777Y-15257674D01*
X15740777Y-15257674D02*
X15759825Y-15248150D01*
X15759825Y-15248150D02*
X15797920Y-15248150D01*
X15797920Y-15248150D02*
X15816968Y-15257674D01*
X15816968Y-15257674D02*
X15826491Y-15276722D01*
X15826491Y-15276722D02*
X15826491Y-15295769D01*
X15826491Y-15295769D02*
X15731253Y-15314817D01*
X15902682Y-15371960D02*
X15921730Y-15381484D01*
X15921730Y-15381484D02*
X15959825Y-15381484D01*
X15959825Y-15381484D02*
X15978872Y-15371960D01*
X15978872Y-15371960D02*
X15988396Y-15352912D01*
X15988396Y-15352912D02*
X15988396Y-15343388D01*
X15988396Y-15343388D02*
X15978872Y-15324341D01*
X15978872Y-15324341D02*
X15959825Y-15314817D01*
X15959825Y-15314817D02*
X15931253Y-15314817D01*
X15931253Y-15314817D02*
X15912206Y-15305293D01*
X15912206Y-15305293D02*
X15902682Y-15286246D01*
X15902682Y-15286246D02*
X15902682Y-15276722D01*
X15902682Y-15276722D02*
X15912206Y-15257674D01*
X15912206Y-15257674D02*
X15931253Y-15248150D01*
X15931253Y-15248150D02*
X15959825Y-15248150D01*
X15959825Y-15248150D02*
X15978872Y-15257674D01*
X16055063Y-15457674D02*
X16064587Y-15448150D01*
X16064587Y-15448150D02*
X16083634Y-15419579D01*
X16083634Y-15419579D02*
X16093158Y-15400531D01*
X16093158Y-15400531D02*
X16102682Y-15371960D01*
X16102682Y-15371960D02*
X16112206Y-15324341D01*
X16112206Y-15324341D02*
X16112206Y-15286246D01*
X16112206Y-15286246D02*
X16102682Y-15238627D01*
X16102682Y-15238627D02*
X16093158Y-15210055D01*
X16093158Y-15210055D02*
X16083634Y-15191008D01*
X16083634Y-15191008D02*
X16064587Y-15162436D01*
X16064587Y-15162436D02*
X16055063Y-15152912D01*
X16416968Y-15457674D02*
X16407444Y-15448150D01*
X16407444Y-15448150D02*
X16388396Y-15419579D01*
X16388396Y-15419579D02*
X16378872Y-15400531D01*
X16378872Y-15400531D02*
X16369349Y-15371960D01*
X16369349Y-15371960D02*
X16359825Y-15324341D01*
X16359825Y-15324341D02*
X16359825Y-15286246D01*
X16359825Y-15286246D02*
X16369349Y-15238627D01*
X16369349Y-15238627D02*
X16378872Y-15210055D01*
X16378872Y-15210055D02*
X16388396Y-15191008D01*
X16388396Y-15191008D02*
X16407444Y-15162436D01*
X16407444Y-15162436D02*
X16416968Y-15152912D01*
X16493158Y-15248150D02*
X16493158Y-15381484D01*
X16493158Y-15267198D02*
X16502682Y-15257674D01*
X16502682Y-15257674D02*
X16521730Y-15248150D01*
X16521730Y-15248150D02*
X16550301Y-15248150D01*
X16550301Y-15248150D02*
X16569349Y-15257674D01*
X16569349Y-15257674D02*
X16578872Y-15276722D01*
X16578872Y-15276722D02*
X16578872Y-15381484D01*
X16702682Y-15381484D02*
X16683634Y-15371960D01*
X16683634Y-15371960D02*
X16674111Y-15362436D01*
X16674111Y-15362436D02*
X16664587Y-15343388D01*
X16664587Y-15343388D02*
X16664587Y-15286246D01*
X16664587Y-15286246D02*
X16674111Y-15267198D01*
X16674111Y-15267198D02*
X16683634Y-15257674D01*
X16683634Y-15257674D02*
X16702682Y-15248150D01*
X16702682Y-15248150D02*
X16731253Y-15248150D01*
X16731253Y-15248150D02*
X16750301Y-15257674D01*
X16750301Y-15257674D02*
X16759825Y-15267198D01*
X16759825Y-15267198D02*
X16769349Y-15286246D01*
X16769349Y-15286246D02*
X16769349Y-15343388D01*
X16769349Y-15343388D02*
X16759825Y-15362436D01*
X16759825Y-15362436D02*
X16750301Y-15371960D01*
X16750301Y-15371960D02*
X16731253Y-15381484D01*
X16731253Y-15381484D02*
X16702682Y-15381484D01*
X16826492Y-15248150D02*
X16902682Y-15248150D01*
X16855063Y-15181484D02*
X16855063Y-15352912D01*
X16855063Y-15352912D02*
X16864587Y-15371960D01*
X16864587Y-15371960D02*
X16883634Y-15381484D01*
X16883634Y-15381484D02*
X16902682Y-15381484D01*
X17121730Y-15248150D02*
X17121730Y-15448150D01*
X17121730Y-15257674D02*
X17140777Y-15248150D01*
X17140777Y-15248150D02*
X17178873Y-15248150D01*
X17178873Y-15248150D02*
X17197920Y-15257674D01*
X17197920Y-15257674D02*
X17207444Y-15267198D01*
X17207444Y-15267198D02*
X17216968Y-15286246D01*
X17216968Y-15286246D02*
X17216968Y-15343388D01*
X17216968Y-15343388D02*
X17207444Y-15362436D01*
X17207444Y-15362436D02*
X17197920Y-15371960D01*
X17197920Y-15371960D02*
X17178873Y-15381484D01*
X17178873Y-15381484D02*
X17140777Y-15381484D01*
X17140777Y-15381484D02*
X17121730Y-15371960D01*
X17331254Y-15381484D02*
X17312206Y-15371960D01*
X17312206Y-15371960D02*
X17302682Y-15352912D01*
X17302682Y-15352912D02*
X17302682Y-15181484D01*
X17493158Y-15381484D02*
X17493158Y-15276722D01*
X17493158Y-15276722D02*
X17483635Y-15257674D01*
X17483635Y-15257674D02*
X17464587Y-15248150D01*
X17464587Y-15248150D02*
X17426492Y-15248150D01*
X17426492Y-15248150D02*
X17407444Y-15257674D01*
X17493158Y-15371960D02*
X17474111Y-15381484D01*
X17474111Y-15381484D02*
X17426492Y-15381484D01*
X17426492Y-15381484D02*
X17407444Y-15371960D01*
X17407444Y-15371960D02*
X17397920Y-15352912D01*
X17397920Y-15352912D02*
X17397920Y-15333865D01*
X17397920Y-15333865D02*
X17407444Y-15314817D01*
X17407444Y-15314817D02*
X17426492Y-15305293D01*
X17426492Y-15305293D02*
X17474111Y-15305293D01*
X17474111Y-15305293D02*
X17493158Y-15295769D01*
X17559825Y-15248150D02*
X17636015Y-15248150D01*
X17588396Y-15181484D02*
X17588396Y-15352912D01*
X17588396Y-15352912D02*
X17597920Y-15371960D01*
X17597920Y-15371960D02*
X17616968Y-15381484D01*
X17616968Y-15381484D02*
X17636015Y-15381484D01*
X17778873Y-15371960D02*
X17759825Y-15381484D01*
X17759825Y-15381484D02*
X17721730Y-15381484D01*
X17721730Y-15381484D02*
X17702682Y-15371960D01*
X17702682Y-15371960D02*
X17693158Y-15352912D01*
X17693158Y-15352912D02*
X17693158Y-15276722D01*
X17693158Y-15276722D02*
X17702682Y-15257674D01*
X17702682Y-15257674D02*
X17721730Y-15248150D01*
X17721730Y-15248150D02*
X17759825Y-15248150D01*
X17759825Y-15248150D02*
X17778873Y-15257674D01*
X17778873Y-15257674D02*
X17788396Y-15276722D01*
X17788396Y-15276722D02*
X17788396Y-15295769D01*
X17788396Y-15295769D02*
X17693158Y-15314817D01*
X17959825Y-15381484D02*
X17959825Y-15181484D01*
X17959825Y-15371960D02*
X17940777Y-15381484D01*
X17940777Y-15381484D02*
X17902682Y-15381484D01*
X17902682Y-15381484D02*
X17883635Y-15371960D01*
X17883635Y-15371960D02*
X17874111Y-15362436D01*
X17874111Y-15362436D02*
X17864587Y-15343388D01*
X17864587Y-15343388D02*
X17864587Y-15286246D01*
X17864587Y-15286246D02*
X17874111Y-15267198D01*
X17874111Y-15267198D02*
X17883635Y-15257674D01*
X17883635Y-15257674D02*
X17902682Y-15248150D01*
X17902682Y-15248150D02*
X17940777Y-15248150D01*
X17940777Y-15248150D02*
X17959825Y-15257674D01*
X18036016Y-15457674D02*
X18045539Y-15448150D01*
X18045539Y-15448150D02*
X18064587Y-15419579D01*
X18064587Y-15419579D02*
X18074111Y-15400531D01*
X18074111Y-15400531D02*
X18083635Y-15371960D01*
X18083635Y-15371960D02*
X18093158Y-15324341D01*
X18093158Y-15324341D02*
X18093158Y-15286246D01*
X18093158Y-15286246D02*
X18083635Y-15238627D01*
X18083635Y-15238627D02*
X18074111Y-15210055D01*
X18074111Y-15210055D02*
X18064587Y-15191008D01*
X18064587Y-15191008D02*
X18045539Y-15162436D01*
X18045539Y-15162436D02*
X18036016Y-15152912D01*
M02*
