M48
; DRILL file {KiCad 9.0.7} date 2026-01-14T23:34:11+0000
; FORMAT={-:-/ absolute / metric / decimal}
; #@! TF.CreationDate,2026-01-14T23:34:11+00:00
; #@! TF.GenerationSoftware,Kicad,Pcbnew,9.0.7
; #@! TF.FileFunction,NonPlated,1,2,NPTH
FMAT,2
METRIC
; #@! TA.AperFunction,NonPlated,NPTH,ComponentDrill
T1C1.700
; #@! TA.AperFunction,NonPlated,NPTH,ComponentDrill
T2C2.200
; #@! TA.AperFunction,NonPlated,NPTH,ComponentDrill
T3C4.000
%
G90
G05
T1
X137.795Y-109.537
X137.795Y-128.588
X147.955Y-109.537
X147.955Y-128.588
X156.845Y-109.537
X156.845Y-128.588
X167.005Y-109.537
X167.005Y-128.588
X175.895Y-109.537
X175.895Y-128.588
X186.055Y-109.537
X186.055Y-128.588
T2
X128.3Y-125.0
X152.2Y-81.7
T3
X142.875Y-109.537
X142.875Y-128.588
X161.925Y-109.537
X161.925Y-128.588
X180.975Y-109.537
X180.975Y-128.588
M30
