M48
; DRILL file {KiCad 9.0.7} date 2026-01-14T23:34:11+0000
; FORMAT={-:-/ absolute / metric / decimal}
; #@! TF.CreationDate,2026-01-14T23:34:11+00:00
; #@! TF.GenerationSoftware,Kicad,Pcbnew,9.0.7
; #@! TF.FileFunction,Plated,1,2,PTH
FMAT,2
METRIC
; #@! TA.AperFunction,Plated,PTH,ViaDrill
T1C0.300
; #@! TA.AperFunction,Plated,PTH,ComponentDrill
T2C1.000
; #@! TA.AperFunction,Plated,PTH,ComponentDrill
T3C1.500
%
G90
G05
T1
X117.2Y-101.1
X119.6Y-90.8
X119.8Y-93.1
X120.8Y-100.2
X124.5Y-106.7
X125.2Y-108.3
X125.9Y-110.7
X126.3Y-105.3
X128.6Y-109.5
X128.7Y-103.2
X129.4Y-100.9
X130.254Y-92.169
X132.2Y-99.6
X134.3Y-90.8
X134.6Y-111.4
X134.7Y-99.6
X135.3Y-86.7
X136.0Y-82.0
X137.6Y-96.4
X140.2Y-87.0
X140.8Y-83.9
X140.9Y-95.9
X143.994Y-91.362
X145.4Y-86.6
X146.1Y-83.1
X178.0Y-93.6
X182.7Y-94.6
T2
X189.065Y-86.792
X189.065Y-89.332
X189.065Y-91.873
X189.065Y-94.412
T3
X139.065Y-106.997
X139.065Y-126.047
X145.415Y-104.457
X145.415Y-123.507
X158.115Y-106.997
X158.115Y-126.047
X164.465Y-104.457
X164.465Y-123.507
X177.165Y-106.997
X177.165Y-126.047
X183.515Y-104.457
X183.515Y-123.507
M30
